<svg width="108" height="12" viewBox="0 0 108 12" fill="none" xmlns="http://www.w3.org/2000/svg">
<path d="M0.218317 11V0.818182H4.23536C5.0043 0.818182 5.66055 0.955729 6.20411 1.23082C6.75099 1.5026 7.16694 1.88873 7.45198 2.3892C7.74033 2.88636 7.88451 3.47135 7.88451 4.14418C7.88451 4.82031 7.73868 5.40199 7.44701 5.8892C7.15534 6.37311 6.73276 6.74432 6.17926 7.00284C5.62907 7.26136 4.96287 7.39062 4.18068 7.39062H1.49104V5.66051H3.83266C4.24365 5.66051 4.58503 5.60417 4.85681 5.49148C5.12859 5.37879 5.33077 5.20975 5.46335 4.98438C5.59924 4.759 5.66718 4.47893 5.66718 4.14418C5.66718 3.80611 5.59924 3.52107 5.46335 3.28906C5.33077 3.05705 5.12693 2.88139 4.85184 2.76207C4.58006 2.63944 4.23702 2.57812 3.82272 2.57812H2.37102V11H0.218317ZM5.7169 6.36648L8.24744 11H5.87102L3.39516 6.36648H5.7169ZM12.6933 11.1491C11.921 11.1491 11.2532 10.9851 10.6897 10.657C10.1296 10.3255 9.69707 9.86482 9.39215 9.27486C9.08722 8.68158 8.93476 7.99384 8.93476 7.21165C8.93476 6.42282 9.08722 5.73343 9.39215 5.14347C9.69707 4.55019 10.1296 4.08949 10.6897 3.76136C11.2532 3.42992 11.921 3.2642 12.6933 3.2642C13.4655 3.2642 14.1317 3.42992 14.6919 3.76136C15.2553 4.08949 15.6895 4.55019 15.9944 5.14347C16.2993 5.73343 16.4518 6.42282 16.4518 7.21165C16.4518 7.99384 16.2993 8.68158 15.9944 9.27486C15.6895 9.86482 15.2553 10.3255 14.6919 10.657C14.1317 10.9851 13.4655 11.1491 12.6933 11.1491ZM12.7032 9.50852C13.0546 9.50852 13.3479 9.40909 13.5832 9.21023C13.8185 9.00805 13.9958 8.73295 14.1152 8.38494C14.2378 8.03693 14.2991 7.64086 14.2991 7.19673C14.2991 6.7526 14.2378 6.35653 14.1152 6.00852C13.9958 5.66051 13.8185 5.38542 13.5832 5.18324C13.3479 4.98106 13.0546 4.87997 12.7032 4.87997C12.3486 4.87997 12.0503 4.98106 11.8083 5.18324C11.5697 5.38542 11.3891 5.66051 11.2664 6.00852C11.1471 6.35653 11.0875 6.7526 11.0875 7.19673C11.0875 7.64086 11.1471 8.03693 11.2664 8.38494C11.3891 8.73295 11.5697 9.00805 11.8083 9.21023C12.0503 9.40909 12.3486 9.50852 12.7032 9.50852ZM21.2792 11.1491C20.497 11.1491 19.8242 10.9834 19.2608 10.652C18.7006 10.3172 18.2697 9.85322 17.9681 9.25994C17.6698 8.66667 17.5207 7.9839 17.5207 7.21165C17.5207 6.42945 17.6715 5.74337 17.9731 5.15341C18.278 4.56013 18.7106 4.09777 19.2707 3.76633C19.8308 3.43158 20.497 3.2642 21.2693 3.2642C21.9355 3.2642 22.5188 3.38518 23.0193 3.62713C23.5197 3.86908 23.9158 4.20881 24.2075 4.64631C24.4992 5.08381 24.6599 5.59754 24.6897 6.1875H22.6912C22.6348 5.80634 22.4857 5.49976 22.2437 5.26776C22.0051 5.03243 21.6919 4.91477 21.3041 4.91477C20.976 4.91477 20.6893 5.00426 20.444 5.18324C20.202 5.3589 20.0131 5.61577 19.8772 5.95384C19.7413 6.2919 19.6734 6.70123 19.6734 7.18182C19.6734 7.66903 19.7397 8.08333 19.8723 8.42472C20.0081 8.7661 20.1987 9.02628 20.444 9.20526C20.6893 9.38423 20.976 9.47372 21.3041 9.47372C21.546 9.47372 21.7631 9.42401 21.9554 9.32457C22.1509 9.22514 22.3117 9.08097 22.4376 8.89205C22.5669 8.69981 22.6514 8.46946 22.6912 8.20099H24.6897C24.6566 8.78433 24.4975 9.29806 24.2125 9.74219C23.9307 10.183 23.5413 10.5277 23.0441 10.7763C22.547 11.0249 21.9587 11.1491 21.2792 11.1491ZM29.496 11.1491C28.7138 11.1491 28.041 10.9834 27.4776 10.652C26.9174 10.3172 26.4865 9.85322 26.1849 9.25994C25.8866 8.66667 25.7375 7.9839 25.7375 7.21165C25.7375 6.42945 25.8883 5.74337 26.1899 5.15341C26.4948 4.56013 26.9274 4.09777 27.4875 3.76633C28.0476 3.43158 28.7138 3.2642 29.4861 3.2642C30.1523 3.2642 30.7356 3.38518 31.2361 3.62713C31.7365 3.86908 32.1326 4.20881 32.4243 4.64631C32.7159 5.08381 32.8767 5.59754 32.9065 6.1875H30.9079C30.8516 5.80634 30.7025 5.49976 30.4605 5.26776C30.2219 5.03243 29.9087 4.91477 29.5209 4.91477C29.1927 4.91477 28.9061 5.00426 28.6608 5.18324C28.4188 5.3589 28.2299 5.61577 28.094 5.95384C27.9581 6.2919 27.8902 6.70123 27.8902 7.18182C27.8902 7.66903 27.9565 8.08333 28.0891 8.42472C28.2249 8.7661 28.4155 9.02628 28.6608 9.20526C28.9061 9.38423 29.1927 9.47372 29.5209 9.47372C29.7628 9.47372 29.9799 9.42401 30.1722 9.32457C30.3677 9.22514 30.5284 9.08097 30.6544 8.89205C30.7837 8.69981 30.8682 8.46946 30.9079 8.20099H32.9065C32.8734 8.78433 32.7143 9.29806 32.4293 9.74219C32.1475 10.183 31.7581 10.5277 31.2609 10.7763C30.7638 11.0249 30.1755 11.1491 29.496 11.1491ZM37.7128 11.1491C36.9406 11.1491 36.2727 10.9851 35.7093 10.657C35.1491 10.3255 34.7166 9.86482 34.4117 9.27486C34.1068 8.68158 33.9543 7.99384 33.9543 7.21165C33.9543 6.42282 34.1068 5.73343 34.4117 5.14347C34.7166 4.55019 35.1491 4.08949 35.7093 3.76136C36.2727 3.42992 36.9406 3.2642 37.7128 3.2642C38.4851 3.2642 39.1513 3.42992 39.7114 3.76136C40.2748 4.08949 40.709 4.55019 41.0139 5.14347C41.3189 5.73343 41.4713 6.42282 41.4713 7.21165C41.4713 7.99384 41.3189 8.68158 41.0139 9.27486C40.709 9.86482 40.2748 10.3255 39.7114 10.657C39.1513 10.9851 38.4851 11.1491 37.7128 11.1491ZM37.7228 9.50852C38.0741 9.50852 38.3674 9.40909 38.6027 9.21023C38.838 9.00805 39.0154 8.73295 39.1347 8.38494C39.2573 8.03693 39.3186 7.64086 39.3186 7.19673C39.3186 6.7526 39.2573 6.35653 39.1347 6.00852C39.0154 5.66051 38.838 5.38542 38.6027 5.18324C38.3674 4.98106 38.0741 4.87997 37.7228 4.87997C37.3681 4.87997 37.0698 4.98106 36.8279 5.18324C36.5892 5.38542 36.4086 5.66051 36.286 6.00852C36.1666 6.35653 36.107 6.7526 36.107 7.19673C36.107 7.64086 36.1666 8.03693 36.286 8.38494C36.4086 8.73295 36.5892 9.00805 36.8279 9.21023C37.0698 9.40909 37.3681 9.50852 37.7228 9.50852ZM46.1285 0.818182H48.7833L51.5873 7.65909H51.7066L54.5106 0.818182H57.1654V11H55.0773V4.37287H54.9928L52.3579 10.9503H50.936L48.3011 4.34801H48.2165V11H46.1285V0.818182ZM63.7963 7.74858V3.36364H65.9142V11H63.8808V9.61293H63.8012C63.6289 10.0604 63.3422 10.42 62.9412 10.6918C62.5434 10.9635 62.0579 11.0994 61.4845 11.0994C60.9741 11.0994 60.525 10.9834 60.1372 10.7514C59.7494 10.5194 59.4461 10.1896 59.2274 9.76207C59.0119 9.33452 58.9026 8.82244 58.8992 8.22585V3.36364H61.0171V7.84801C61.0205 8.29877 61.1414 8.65507 61.3801 8.9169C61.6187 9.17874 61.9385 9.30966 62.3396 9.30966C62.5948 9.30966 62.8334 9.25166 63.0555 9.13565C63.2776 9.01634 63.4565 8.84067 63.5924 8.60866C63.7316 8.37666 63.7996 8.08996 63.7963 7.74858ZM73.9619 5.54119L72.023 5.66051C71.9899 5.49479 71.9186 5.34564 71.8092 5.21307C71.6999 5.07718 71.5557 4.96946 71.3767 4.88991C71.201 4.80705 70.9906 4.76562 70.7453 4.76562C70.4172 4.76562 70.1404 4.83523 69.9151 4.97443C69.6897 5.11032 69.577 5.29261 69.577 5.52131C69.577 5.7036 69.6499 5.85772 69.7957 5.98366C69.9416 6.10961 70.1918 6.2107 70.5464 6.28693L71.9285 6.56534C72.671 6.7178 73.2245 6.96307 73.5891 7.30114C73.9536 7.6392 74.1359 8.08333 74.1359 8.63352C74.1359 9.134 73.9884 9.57315 73.6935 9.95099C73.4018 10.3288 73.0008 10.6238 72.4903 10.8359C71.9832 11.0447 71.3982 11.1491 70.7354 11.1491C69.7245 11.1491 68.9191 10.9387 68.3192 10.5178C67.7226 10.0935 67.3729 9.51681 67.2702 8.78764L69.3533 8.67827C69.4162 8.98651 69.5687 9.22183 69.8106 9.38423C70.0526 9.54332 70.3625 9.62287 70.7403 9.62287C71.1115 9.62287 71.4098 9.55161 71.6352 9.40909C71.8639 9.26326 71.9799 9.07599 71.9832 8.8473C71.9799 8.65507 71.8987 8.49763 71.7396 8.375C71.5805 8.24905 71.3353 8.15294 71.0038 8.08665L69.6814 7.82315C68.9356 7.67401 68.3805 7.41548 68.0159 7.04759C67.6546 6.67969 67.474 6.2107 67.474 5.64062C67.474 5.15009 67.6066 4.72751 67.8717 4.37287C68.1402 4.01823 68.5164 3.74479 69.0003 3.55256C69.4875 3.36032 70.0576 3.2642 70.7105 3.2642C71.675 3.2642 72.434 3.46804 72.9875 3.87571C73.5443 4.28338 73.8691 4.83854 73.9619 5.54119ZM78.9198 11.1491C78.1476 11.1491 77.4797 10.9851 76.9163 10.657C76.3562 10.3255 75.9236 9.86482 75.6187 9.27486C75.3138 8.68158 75.1613 7.99384 75.1613 7.21165C75.1613 6.42282 75.3138 5.73343 75.6187 5.14347C75.9236 4.55019 76.3562 4.08949 76.9163 3.76136C77.4797 3.42992 78.1476 3.2642 78.9198 3.2642C79.6921 3.2642 80.3583 3.42992 80.9184 3.76136C81.4819 4.08949 81.9161 4.55019 82.221 5.14347C82.5259 5.73343 82.6784 6.42282 82.6784 7.21165C82.6784 7.99384 82.5259 8.68158 82.221 9.27486C81.9161 9.86482 81.4819 10.3255 80.9184 10.657C80.3583 10.9851 79.6921 11.1491 78.9198 11.1491ZM78.9298 9.50852C79.2811 9.50852 79.5744 9.40909 79.8098 9.21023C80.0451 9.00805 80.2224 8.73295 80.3417 8.38494C80.4644 8.03693 80.5257 7.64086 80.5257 7.19673C80.5257 6.7526 80.4644 6.35653 80.3417 6.00852C80.2224 5.66051 80.0451 5.38542 79.8098 5.18324C79.5744 4.98106 79.2811 4.87997 78.9298 4.87997C78.5751 4.87997 78.2769 4.98106 78.0349 5.18324C77.7963 5.38542 77.6156 5.66051 77.493 6.00852C77.3737 6.35653 77.314 6.7526 77.314 7.19673C77.314 7.64086 77.3737 8.03693 77.493 8.38494C77.6156 8.73295 77.7963 9.00805 78.0349 9.21023C78.2769 9.40909 78.5751 9.50852 78.9298 9.50852ZM86.1734 0.818182V11H84.0555V0.818182H86.1734ZM87.87 11V3.36364H89.9878V11H87.87ZM88.9339 2.37926C88.619 2.37926 88.3489 2.27486 88.1235 2.06605C87.9014 1.85393 87.7904 1.60038 87.7904 1.3054C87.7904 1.01373 87.9014 0.763494 88.1235 0.554688C88.3489 0.342566 88.619 0.236505 88.9339 0.236505C89.2487 0.236505 89.5172 0.342566 89.7393 0.554688C89.9646 0.763494 90.0773 1.01373 90.0773 1.3054C90.0773 1.60038 89.9646 1.85393 89.7393 2.06605C89.5172 2.27486 89.2487 2.37926 88.9339 2.37926ZM93.8023 6.58523V11H91.6844V3.36364H93.7029V4.71094H93.7924C93.9614 4.26681 94.2448 3.91548 94.6425 3.65696C95.0402 3.39512 95.5225 3.2642 96.0892 3.2642C96.6195 3.2642 97.0819 3.38021 97.4763 3.61222C97.8707 3.84422 98.1773 4.17566 98.3961 4.60653C98.6148 5.03409 98.7242 5.54451 98.7242 6.13778V11H96.6063V6.51562C96.6096 6.0483 96.4903 5.68371 96.2483 5.42188C96.0064 5.15672 95.6733 5.02415 95.249 5.02415C94.964 5.02415 94.7121 5.08546 94.4934 5.2081C94.2779 5.33073 94.1089 5.50971 93.9863 5.74503C93.8669 5.97704 93.8056 6.2571 93.8023 6.58523ZM103.844 11.1491C103.071 11.1491 102.404 10.9851 101.84 10.657C101.28 10.3255 100.847 9.86482 100.543 9.27486C100.238 8.68158 100.085 7.99384 100.085 7.21165C100.085 6.42282 100.238 5.73343 100.543 5.14347C100.847 4.55019 101.28 4.08949 101.84 3.76136C102.404 3.42992 103.071 3.2642 103.844 3.2642C104.616 3.2642 105.282 3.42992 105.842 3.76136C106.406 4.08949 106.84 4.55019 107.145 5.14347C107.45 5.73343 107.602 6.42282 107.602 7.21165C107.602 7.99384 107.45 8.68158 107.145 9.27486C106.84 9.86482 106.406 10.3255 105.842 10.657C105.282 10.9851 104.616 11.1491 103.844 11.1491ZM103.854 9.50852C104.205 9.50852 104.498 9.40909 104.734 9.21023C104.969 9.00805 105.146 8.73295 105.266 8.38494C105.388 8.03693 105.449 7.64086 105.449 7.19673C105.449 6.7526 105.388 6.35653 105.266 6.00852C105.146 5.66051 104.969 5.38542 104.734 5.18324C104.498 4.98106 104.205 4.87997 103.854 4.87997C103.499 4.87997 103.201 4.98106 102.959 5.18324C102.72 5.38542 102.539 5.66051 102.417 6.00852C102.298 6.35653 102.238 6.7526 102.238 7.19673C102.238 7.64086 102.298 8.03693 102.417 8.38494C102.539 8.73295 102.72 9.00805 102.959 9.21023C103.201 9.40909 103.499 9.50852 103.854 9.50852Z" fill="white"/>
</svg>
