<svg width="84" height="12" viewBox="0 0 84 12" fill="none" xmlns="http://www.w3.org/2000/svg">
<path d="M0.884943 0.818182H3.53977L6.34375 7.65909H6.46307L9.26705 0.818182H11.9219V11H9.83381V4.37287H9.74929L7.11435 10.9503H5.69247L3.05753 4.34801H2.97301V11H0.884943V0.818182ZM13.6557 11V3.36364H15.7736V11H13.6557ZM14.7196 2.37926C14.4048 2.37926 14.1346 2.27486 13.9093 2.06605C13.6872 1.85393 13.5762 1.60038 13.5762 1.3054C13.5762 1.01373 13.6872 0.763494 13.9093 0.554688C14.1346 0.342566 14.4048 0.236505 14.7196 0.236505C15.0345 0.236505 15.303 0.342566 15.525 0.554688C15.7504 0.763494 15.8631 1.01373 15.8631 1.3054C15.8631 1.60038 15.7504 1.85393 15.525 2.06605C15.303 2.27486 15.0345 2.37926 14.7196 2.37926ZM19.5881 6.58523V11H17.4702V0.818182H19.5284V4.71094H19.6179C19.7902 4.26018 20.0687 3.9072 20.4531 3.65199C20.8376 3.39347 21.3198 3.2642 21.8999 3.2642C22.4302 3.2642 22.8925 3.38021 23.2869 3.61222C23.6847 3.84091 23.9929 4.17069 24.2116 4.60156C24.4337 5.02912 24.5431 5.54119 24.5398 6.13778V11H22.4219V6.51562C22.4252 6.04498 22.3059 5.67874 22.0639 5.4169C21.8253 5.15507 21.4905 5.02415 21.0597 5.02415C20.7713 5.02415 20.5161 5.08546 20.294 5.2081C20.0753 5.33073 19.9029 5.50971 19.777 5.74503C19.6544 5.97704 19.5914 6.2571 19.5881 6.58523ZM28.3841 11.1442C27.8968 11.1442 27.4627 11.0597 27.0815 10.8906C26.7003 10.7183 26.3987 10.4647 26.1767 10.13C25.9579 9.7919 25.8485 9.37098 25.8485 8.86719C25.8485 8.44295 25.9264 8.08665 26.0822 7.7983C26.238 7.50994 26.4501 7.27794 26.7186 7.10227C26.987 6.92661 27.292 6.79403 27.6333 6.70455C27.978 6.61506 28.3393 6.55208 28.7172 6.51562C29.1613 6.46922 29.5192 6.42614 29.791 6.38636C30.0628 6.34328 30.26 6.2803 30.3826 6.19744C30.5053 6.11458 30.5666 5.99195 30.5666 5.82955V5.79972C30.5666 5.48485 30.4672 5.24124 30.2683 5.06889C30.0727 4.89654 29.7943 4.81037 29.4331 4.81037C29.0519 4.81037 28.7486 4.89489 28.5233 5.06392C28.2979 5.22964 28.1487 5.43845 28.0758 5.69034L26.117 5.53125C26.2164 5.06723 26.412 4.66619 26.7037 4.32812C26.9953 3.98674 27.3715 3.7249 27.8322 3.54261C28.2962 3.35701 28.8332 3.2642 29.443 3.2642C29.8672 3.2642 30.2733 3.31392 30.661 3.41335C31.0521 3.51278 31.3985 3.6669 31.7001 3.87571C32.005 4.08452 32.2453 4.35298 32.421 4.68111C32.5967 5.00592 32.6845 5.39536 32.6845 5.84943V11H30.676V9.94105H30.6163C30.4937 10.1797 30.3296 10.3902 30.1241 10.5724C29.9186 10.7514 29.6717 10.8923 29.3833 10.995C29.095 11.0945 28.7619 11.1442 28.3841 11.1442ZM28.9906 9.68253C29.3021 9.68253 29.5772 9.62121 29.8159 9.49858C30.0545 9.37263 30.2418 9.2036 30.3777 8.99148C30.5136 8.77936 30.5815 8.53906 30.5815 8.2706V7.46023C30.5152 7.50331 30.4241 7.54309 30.3081 7.57955C30.1954 7.61269 30.0678 7.64418 29.9252 7.67401C29.7827 7.70052 29.6402 7.72538 29.4977 7.74858C29.3552 7.76847 29.2259 7.78669 29.1099 7.80327C28.8613 7.83973 28.6442 7.89773 28.4586 7.97727C28.273 8.05682 28.1288 8.16454 28.0261 8.30043C27.9234 8.433 27.872 8.59872 27.872 8.79759C27.872 9.08594 27.9764 9.30634 28.1852 9.45881C28.3973 9.60795 28.6658 9.68253 28.9906 9.68253ZM34.3276 11V3.36364H36.4455V11H34.3276ZM35.3915 2.37926C35.0766 2.37926 34.8065 2.27486 34.5811 2.06605C34.3591 1.85393 34.248 1.60038 34.248 1.3054C34.248 1.01373 34.3591 0.763494 34.5811 0.554688C34.8065 0.342566 35.0766 0.236505 35.3915 0.236505C35.7064 0.236505 35.9748 0.342566 36.1969 0.554688C36.4223 0.763494 36.535 1.01373 36.535 1.3054C36.535 1.60038 36.4223 1.85393 36.1969 2.06605C35.9748 2.27486 35.7064 2.37926 35.3915 2.37926ZM50.4057 4.38281H48.2282C48.1884 4.10109 48.1072 3.85085 47.9846 3.6321C47.8619 3.41004 47.7045 3.22112 47.5123 3.06534C47.32 2.90956 47.098 2.79025 46.8461 2.70739C46.5975 2.62453 46.3274 2.5831 46.0357 2.5831C45.5087 2.5831 45.0497 2.71402 44.6586 2.97585C44.2675 3.23437 43.9642 3.61222 43.7488 4.10938C43.5333 4.60322 43.4256 5.20312 43.4256 5.90909C43.4256 6.63494 43.5333 7.24479 43.7488 7.73864C43.9675 8.23248 44.2724 8.60535 44.6635 8.85724C45.0546 9.10914 45.507 9.23509 46.0208 9.23509C46.3091 9.23509 46.5759 9.19697 46.8212 9.12074C47.0698 9.04451 47.2902 8.93348 47.4824 8.78764C47.6747 8.63849 47.8337 8.45786 47.9597 8.24574C48.089 8.03362 48.1784 7.79167 48.2282 7.51989L50.4057 7.52983C50.3494 7.99716 50.2085 8.44792 49.9831 8.8821C49.7611 9.31297 49.4611 9.6991 49.0833 10.0405C48.7087 10.3786 48.2613 10.647 47.7409 10.8459C47.2239 11.0414 46.6389 11.1392 45.986 11.1392C45.0778 11.1392 44.2658 10.9337 43.5499 10.5227C42.8373 10.1117 42.2739 9.51681 41.8596 8.73793C41.4486 7.95904 41.2431 7.0161 41.2431 5.90909C41.2431 4.79877 41.4519 3.85417 41.8695 3.07528C42.2871 2.2964 42.8539 1.70312 43.5698 1.29545C44.2857 0.884469 45.0911 0.678977 45.986 0.678977C46.5759 0.678977 47.1228 0.761837 47.6266 0.927557C48.1337 1.09328 48.5828 1.33523 48.9739 1.65341C49.365 1.96828 49.6832 2.3544 49.9284 2.81179C50.177 3.26918 50.3361 3.79285 50.4057 4.38281ZM54.0872 11.1442C53.6 11.1442 53.1658 11.0597 52.7846 10.8906C52.4035 10.7183 52.1019 10.4647 51.8798 10.13C51.661 9.7919 51.5517 9.37098 51.5517 8.86719C51.5517 8.44295 51.6296 8.08665 51.7853 7.7983C51.9411 7.50994 52.1532 7.27794 52.4217 7.10227C52.6902 6.92661 52.9951 6.79403 53.3365 6.70455C53.6812 6.61506 54.0424 6.55208 54.4203 6.51562C54.8644 6.46922 55.2224 6.42614 55.4941 6.38636C55.7659 6.34328 55.9631 6.2803 56.0858 6.19744C56.2084 6.11458 56.2697 5.99195 56.2697 5.82955V5.79972C56.2697 5.48485 56.1703 5.24124 55.9714 5.06889C55.7759 4.89654 55.4975 4.81037 55.1362 4.81037C54.755 4.81037 54.4518 4.89489 54.2264 5.06392C54.001 5.22964 53.8519 5.43845 53.7789 5.69034L51.8201 5.53125C51.9196 5.06723 52.1151 4.66619 52.4068 4.32812C52.6984 3.98674 53.0746 3.7249 53.5353 3.54261C53.9993 3.35701 54.5363 3.2642 55.1461 3.2642C55.5704 3.2642 55.9764 3.31392 56.3642 3.41335C56.7553 3.51278 57.1016 3.6669 57.4032 3.87571C57.7082 4.08452 57.9484 4.35298 58.1241 4.68111C58.2998 5.00592 58.3876 5.39536 58.3876 5.84943V11H56.3791V9.94105H56.3194C56.1968 10.1797 56.0327 10.3902 55.8272 10.5724C55.6217 10.7514 55.3748 10.8923 55.0865 10.995C54.7981 11.0945 54.465 11.1442 54.0872 11.1442ZM54.6937 9.68253C55.0053 9.68253 55.2804 9.62121 55.519 9.49858C55.7576 9.37263 55.9449 9.2036 56.0808 8.99148C56.2167 8.77936 56.2846 8.53906 56.2846 8.2706V7.46023C56.2183 7.50331 56.1272 7.54309 56.0112 7.57955C55.8985 7.61269 55.7709 7.64418 55.6284 7.67401C55.4859 7.70052 55.3433 7.72538 55.2008 7.74858C55.0583 7.76847 54.929 7.78669 54.813 7.80327C54.5645 7.83973 54.3474 7.89773 54.1618 7.97727C53.9761 8.05682 53.832 8.16454 53.7292 8.30043C53.6265 8.433 53.5751 8.59872 53.5751 8.79759C53.5751 9.08594 53.6795 9.30634 53.8883 9.45881C54.1004 9.60795 54.3689 9.68253 54.6937 9.68253ZM62.1486 6.58523V11H60.0307V3.36364H62.0492V4.71094H62.1387C62.3077 4.26681 62.5911 3.91548 62.9888 3.65696C63.3865 3.39512 63.8688 3.2642 64.4355 3.2642C64.9658 3.2642 65.4282 3.38021 65.8226 3.61222C66.217 3.84422 66.5236 4.17566 66.7424 4.60653C66.9611 5.03409 67.0705 5.54451 67.0705 6.13778V11H64.9526V6.51562C64.9559 6.0483 64.8366 5.68371 64.5946 5.42188C64.3527 5.15672 64.0196 5.02415 63.5953 5.02415C63.3103 5.02415 63.0584 5.08546 62.8397 5.2081C62.6242 5.33073 62.4552 5.50971 62.3326 5.74503C62.2132 5.97704 62.1519 6.2571 62.1486 6.58523ZM72.2198 11.1491C71.4343 11.1491 70.7582 10.9901 70.1914 10.6719C69.628 10.3504 69.1938 9.89631 68.8888 9.30966C68.5839 8.7197 68.4315 8.02202 68.4315 7.21662C68.4315 6.43111 68.5839 5.74171 68.8888 5.14844C69.1938 4.55516 69.623 4.0928 70.1765 3.76136C70.7333 3.42992 71.3862 3.2642 72.1353 3.2642C72.6391 3.2642 73.1081 3.34541 73.5423 3.50781C73.9798 3.6669 74.3609 3.9072 74.6857 4.22869C75.0138 4.55019 75.2691 4.95455 75.4513 5.44176C75.6336 5.92566 75.7248 6.49242 75.7248 7.14205V7.72372H69.2766V6.41122H73.7312C73.7312 6.1063 73.6649 5.83617 73.5323 5.60085C73.3997 5.36553 73.2158 5.18158 72.9805 5.04901C72.7485 4.91312 72.4783 4.84517 72.1701 4.84517C71.8486 4.84517 71.5636 4.91974 71.315 5.06889C71.0697 5.21473 70.8775 5.41193 70.7383 5.66051C70.5991 5.90578 70.5278 6.17921 70.5245 6.48082V7.72869C70.5245 8.10653 70.5941 8.433 70.7333 8.7081C70.8758 8.98319 71.0763 9.19531 71.3349 9.34446C71.5934 9.49361 71.9 9.56818 72.2546 9.56818C72.4899 9.56818 72.7054 9.53504 72.9009 9.46875C73.0965 9.40246 73.2638 9.30303 73.4031 9.17045C73.5423 9.03788 73.6483 8.87547 73.7212 8.68324L75.68 8.8125C75.5806 9.28314 75.3768 9.69413 75.0685 10.0455C74.7636 10.3935 74.3692 10.6652 73.8853 10.8608C73.4047 11.053 72.8496 11.1491 72.2198 11.1491ZM79.2844 11.1442C78.7972 11.1442 78.363 11.0597 77.9819 10.8906C77.6007 10.7183 77.2991 10.4647 77.0771 10.13C76.8583 9.7919 76.7489 9.37098 76.7489 8.86719C76.7489 8.44295 76.8268 8.08665 76.9826 7.7983C77.1384 7.50994 77.3505 7.27794 77.619 7.10227C77.8874 6.92661 78.1924 6.79403 78.5337 6.70455C78.8784 6.61506 79.2397 6.55208 79.6175 6.51562C80.0617 6.46922 80.4196 6.42614 80.6914 6.38636C80.9632 6.34328 81.1604 6.2803 81.283 6.19744C81.4057 6.11458 81.467 5.99195 81.467 5.82955V5.79972C81.467 5.48485 81.3675 5.24124 81.1687 5.06889C80.9731 4.89654 80.6947 4.81037 80.3335 4.81037C79.9523 4.81037 79.649 4.89489 79.4237 5.06392C79.1983 5.22964 79.0491 5.43845 78.9762 5.69034L77.0174 5.53125C77.1168 5.06723 77.3124 4.66619 77.604 4.32812C77.8957 3.98674 78.2719 3.7249 78.7326 3.54261C79.1966 3.35701 79.7335 3.2642 80.3434 3.2642C80.7676 3.2642 81.1737 3.31392 81.5614 3.41335C81.9525 3.51278 82.2989 3.6669 82.6005 3.87571C82.9054 4.08452 83.1457 4.35298 83.3214 4.68111C83.497 5.00592 83.5849 5.39536 83.5849 5.84943V11H81.5763V9.94105H81.5167C81.3941 10.1797 81.23 10.3902 81.0245 10.5724C80.819 10.7514 80.5721 10.8923 80.2837 10.995C79.9954 11.0945 79.6623 11.1442 79.2844 11.1442ZM79.891 9.68253C80.2025 9.68253 80.4776 9.62121 80.7163 9.49858C80.9549 9.37263 81.1422 9.2036 81.2781 8.99148C81.4139 8.77936 81.4819 8.53906 81.4819 8.2706V7.46023C81.4156 7.50331 81.3245 7.54309 81.2085 7.57955C81.0958 7.61269 80.9682 7.64418 80.8256 7.67401C80.6831 7.70052 80.5406 7.72538 80.3981 7.74858C80.2556 7.76847 80.1263 7.78669 80.0103 7.80327C79.7617 7.83973 79.5446 7.89773 79.359 7.97727C79.1734 8.05682 79.0292 8.16454 78.9265 8.30043C78.8237 8.433 78.7724 8.59872 78.7724 8.79759C78.7724 9.08594 78.8768 9.30634 79.0856 9.45881C79.2977 9.60795 79.5662 9.68253 79.891 9.68253Z" fill="white"/>
</svg>
