<svg width="111" height="12" viewBox="0 0 111 12" fill="none" xmlns="http://www.w3.org/2000/svg">
<path d="M0.884943 11V0.818182H7.74574V2.59304H3.03764V5.01918H7.39276V6.79403H3.03764V9.22514H7.76562V11H0.884943ZM9.41744 11V3.36364H11.4359V4.71094H11.5254C11.6845 4.26349 11.9496 3.91051 12.3208 3.65199C12.6921 3.39347 13.1362 3.2642 13.6532 3.2642C14.1769 3.2642 14.6227 3.39512 14.9906 3.65696C15.3585 3.91548 15.6038 4.26681 15.7264 4.71094H15.8059C15.9617 4.27344 16.2434 3.92377 16.6511 3.66193C17.0621 3.39678 17.5476 3.2642 18.1078 3.2642C18.8204 3.2642 19.3987 3.49124 19.8429 3.94531C20.2903 4.39607 20.514 5.03575 20.514 5.86435V11H18.4011V6.28196C18.4011 5.85772 18.2884 5.53954 18.063 5.32741C17.8377 5.11529 17.5559 5.00923 17.2179 5.00923C16.8334 5.00923 16.5334 5.13187 16.318 5.37713C16.1026 5.61908 15.9949 5.93892 15.9949 6.33665V11H13.9416V6.23722C13.9416 5.86269 13.8339 5.56439 13.6184 5.34233C13.4063 5.12026 13.1262 5.00923 12.7782 5.00923C12.5429 5.00923 12.3308 5.06889 12.1419 5.18821C11.9563 5.30421 11.8088 5.46828 11.6994 5.6804C11.59 5.8892 11.5353 6.13447 11.5353 6.41619V11H9.41744ZM24.3645 11.1442C23.8773 11.1442 23.4431 11.0597 23.062 10.8906C22.6808 10.7183 22.3792 10.4647 22.1571 10.13C21.9384 9.7919 21.829 9.37098 21.829 8.86719C21.829 8.44295 21.9069 8.08665 22.0627 7.7983C22.2185 7.50994 22.4306 7.27794 22.699 7.10227C22.9675 6.92661 23.2724 6.79403 23.6138 6.70455C23.9585 6.61506 24.3198 6.55208 24.6976 6.51562C25.1417 6.46922 25.4997 6.42614 25.7715 6.38636C26.0433 6.34328 26.2405 6.2803 26.3631 6.19744C26.4857 6.11458 26.5471 5.99195 26.5471 5.82955V5.79972C26.5471 5.48485 26.4476 5.24124 26.2488 5.06889C26.0532 4.89654 25.7748 4.81037 25.4135 4.81037C25.0324 4.81037 24.7291 4.89489 24.5037 5.06392C24.2783 5.22964 24.1292 5.43845 24.0563 5.69034L22.0975 5.53125C22.1969 5.06723 22.3925 4.66619 22.6841 4.32812C22.9758 3.98674 23.352 3.7249 23.8127 3.54261C24.2767 3.35701 24.8136 3.2642 25.4235 3.2642C25.8477 3.2642 26.2537 3.31392 26.6415 3.41335C27.0326 3.51278 27.379 3.6669 27.6806 3.87571C27.9855 4.08452 28.2258 4.35298 28.4015 4.68111C28.5771 5.00592 28.665 5.39536 28.665 5.84943V11H26.6564V9.94105H26.5968C26.4741 10.1797 26.3101 10.3902 26.1046 10.5724C25.8991 10.7514 25.6522 10.8923 25.3638 10.995C25.0755 11.0945 24.7424 11.1442 24.3645 11.1442ZM24.9711 9.68253C25.2826 9.68253 25.5577 9.62121 25.7963 9.49858C26.035 9.37263 26.2222 9.2036 26.3581 8.99148C26.494 8.77936 26.562 8.53906 26.562 8.2706V7.46023C26.4957 7.50331 26.4045 7.54309 26.2885 7.57955C26.1758 7.61269 26.0482 7.64418 25.9057 7.67401C25.7632 7.70052 25.6207 7.72538 25.4782 7.74858C25.3356 7.76847 25.2064 7.78669 25.0904 7.80327C24.8418 7.83973 24.6247 7.89773 24.4391 7.97727C24.2535 8.05682 24.1093 8.16454 24.0066 8.30043C23.9038 8.433 23.8525 8.59872 23.8525 8.79759C23.8525 9.08594 23.9569 9.30634 24.1657 9.45881C24.3778 9.60795 24.6462 9.68253 24.9711 9.68253ZM32.426 6.58523V11H30.3081V3.36364H32.3265V4.71094H32.416C32.585 4.26681 32.8684 3.91548 33.2662 3.65696C33.6639 3.39512 34.1461 3.2642 34.7129 3.2642C35.2432 3.2642 35.7056 3.38021 36.1 3.61222C36.4944 3.84422 36.801 4.17566 37.0197 4.60653C37.2385 5.03409 37.3478 5.54451 37.3478 6.13778V11H35.2299V6.51562C35.2333 6.0483 35.1139 5.68371 34.872 5.42188C34.63 5.15672 34.2969 5.02415 33.8727 5.02415C33.5877 5.02415 33.3358 5.08546 33.117 5.2081C32.9016 5.33073 32.7325 5.50971 32.6099 5.74503C32.4906 5.97704 32.4293 6.2571 32.426 6.58523ZM43.9141 7.74858V3.36364H46.032V11H43.9986V9.61293H43.919C43.7467 10.0604 43.46 10.42 43.0589 10.6918C42.6612 10.9635 42.1757 11.0994 41.6023 11.0994C41.0919 11.0994 40.6428 10.9834 40.255 10.7514C39.8672 10.5194 39.5639 10.1896 39.3452 9.76207C39.1297 9.33452 39.0204 8.82244 39.017 8.22585V3.36364H41.1349V7.84801C41.1383 8.29877 41.2592 8.65507 41.4979 8.9169C41.7365 9.17874 42.0563 9.30966 42.4574 9.30966C42.7126 9.30966 42.9512 9.25166 43.1733 9.13565C43.3954 9.01634 43.5743 8.84067 43.7102 8.60866C43.8494 8.37666 43.9174 8.08996 43.9141 7.74858ZM51.2061 11.1491C50.4206 11.1491 49.7445 10.9901 49.1777 10.6719C48.6143 10.3504 48.1801 9.89631 47.8752 9.30966C47.5703 8.7197 47.4178 8.02202 47.4178 7.21662C47.4178 6.43111 47.5703 5.74171 47.8752 5.14844C48.1801 4.55516 48.6093 4.0928 49.1628 3.76136C49.7196 3.42992 50.3726 3.2642 51.1216 3.2642C51.6254 3.2642 52.0944 3.34541 52.5286 3.50781C52.9661 3.6669 53.3472 3.9072 53.6721 4.22869C54.0002 4.55019 54.2554 4.95455 54.4377 5.44176C54.62 5.92566 54.7111 6.49242 54.7111 7.14205V7.72372H48.263V6.41122H52.7175C52.7175 6.1063 52.6512 5.83617 52.5186 5.60085C52.3861 5.36553 52.2021 5.18158 51.9668 5.04901C51.7348 4.91312 51.4647 4.84517 51.1564 4.84517C50.8349 4.84517 50.5499 4.91974 50.3013 5.06889C50.056 5.21473 49.8638 5.41193 49.7246 5.66051C49.5854 5.90578 49.5141 6.17921 49.5108 6.48082V7.72869C49.5108 8.10653 49.5804 8.433 49.7196 8.7081C49.8622 8.98319 50.0627 9.19531 50.3212 9.34446C50.5797 9.49361 50.8863 9.56818 51.2409 9.56818C51.4763 9.56818 51.6917 9.53504 51.8873 9.46875C52.0828 9.40246 52.2502 9.30303 52.3894 9.17045C52.5286 9.03788 52.6346 8.87547 52.7076 8.68324L54.6664 8.8125C54.5669 9.28314 54.3631 9.69413 54.0549 10.0455C53.7499 10.3935 53.3555 10.6652 52.8716 10.8608C52.391 11.053 51.8359 11.1491 51.2061 11.1491ZM58.2111 0.818182V11H56.0932V0.818182H58.2111ZM63.3878 11.1491C62.6023 11.1491 61.9261 10.9901 61.3594 10.6719C60.7959 10.3504 60.3617 9.89631 60.0568 9.30966C59.7519 8.7197 59.5994 8.02202 59.5994 7.21662C59.5994 6.43111 59.7519 5.74171 60.0568 5.14844C60.3617 4.55516 60.791 4.0928 61.3445 3.76136C61.9013 3.42992 62.5542 3.2642 63.3033 3.2642C63.8071 3.2642 64.276 3.34541 64.7102 3.50781C65.1477 3.6669 65.5289 3.9072 65.8537 4.22869C66.1818 4.55019 66.437 4.95455 66.6193 5.44176C66.8016 5.92566 66.8928 6.49242 66.8928 7.14205V7.72372H60.4446V6.41122H64.8991C64.8991 6.1063 64.8329 5.83617 64.7003 5.60085C64.5677 5.36553 64.3838 5.18158 64.1484 5.04901C63.9164 4.91312 63.6463 4.84517 63.3381 4.84517C63.0166 4.84517 62.7315 4.91974 62.483 5.06889C62.2377 5.21473 62.0455 5.41193 61.9062 5.66051C61.767 5.90578 61.6958 6.17921 61.6925 6.48082V7.72869C61.6925 8.10653 61.7621 8.433 61.9013 8.7081C62.0438 8.98319 62.2443 9.19531 62.5028 9.34446C62.7614 9.49361 63.0679 9.56818 63.4226 9.56818C63.6579 9.56818 63.8733 9.53504 64.0689 9.46875C64.2644 9.40246 64.4318 9.30303 64.571 9.17045C64.7102 9.03788 64.8163 8.87547 64.8892 8.68324L66.848 8.8125C66.7486 9.28314 66.5447 9.69413 66.2365 10.0455C65.9316 10.3935 65.5372 10.6652 65.0533 10.8608C64.5727 11.053 64.0175 11.1491 63.3878 11.1491ZM80.5385 4.38281H78.361C78.3212 4.10109 78.24 3.85085 78.1174 3.6321C77.9947 3.41004 77.8373 3.22112 77.6451 3.06534C77.4528 2.90956 77.2308 2.79025 76.9789 2.70739C76.7303 2.62453 76.4602 2.5831 76.1685 2.5831C75.6415 2.5831 75.1825 2.71402 74.7914 2.97585C74.4003 3.23437 74.097 3.61222 73.8816 4.10938C73.6661 4.60322 73.5584 5.20312 73.5584 5.90909C73.5584 6.63494 73.6661 7.24479 73.8816 7.73864C74.1003 8.23248 74.4052 8.60535 74.7963 8.85724C75.1874 9.10914 75.6399 9.23509 76.1536 9.23509C76.4419 9.23509 76.7087 9.19697 76.954 9.12074C77.2026 9.04451 77.423 8.93348 77.6152 8.78764C77.8075 8.63849 77.9666 8.45786 78.0925 8.24574C78.2218 8.03362 78.3113 7.79167 78.361 7.51989L80.5385 7.52983C80.4822 7.99716 80.3413 8.44792 80.1159 8.8821C79.8939 9.31297 79.5939 9.6991 79.2161 10.0405C78.8416 10.3786 78.3941 10.647 77.8738 10.8459C77.3567 11.0414 76.7717 11.1392 76.1188 11.1392C75.2106 11.1392 74.3986 10.9337 73.6827 10.5227C72.9701 10.1117 72.4067 9.51681 71.9924 8.73793C71.5814 7.95904 71.3759 7.0161 71.3759 5.90909C71.3759 4.79877 71.5847 3.85417 72.0023 3.07528C72.4199 2.2964 72.9867 1.70312 73.7026 1.29545C74.4185 0.884469 75.2239 0.678977 76.1188 0.678977C76.7087 0.678977 77.2556 0.761837 77.7594 0.927557C78.2665 1.09328 78.7156 1.33523 79.1067 1.65341C79.4978 1.96828 79.816 2.3544 80.0613 2.81179C80.3098 3.26918 80.4689 3.79285 80.5385 4.38281ZM85.4927 11.1491C84.7205 11.1491 84.0526 10.9851 83.4892 10.657C82.929 10.3255 82.4965 9.86482 82.1916 9.27486C81.8867 8.68158 81.7342 7.99384 81.7342 7.21165C81.7342 6.42282 81.8867 5.73343 82.1916 5.14347C82.4965 4.55019 82.929 4.08949 83.4892 3.76136C84.0526 3.42992 84.7205 3.2642 85.4927 3.2642C86.265 3.2642 86.9312 3.42992 87.4913 3.76136C88.0547 4.08949 88.4889 4.55019 88.7939 5.14347C89.0988 5.73343 89.2512 6.42282 89.2512 7.21165C89.2512 7.99384 89.0988 8.68158 88.7939 9.27486C88.4889 9.86482 88.0547 10.3255 87.4913 10.657C86.9312 10.9851 86.265 11.1491 85.4927 11.1491ZM85.5027 9.50852C85.854 9.50852 86.1473 9.40909 86.3826 9.21023C86.618 9.00805 86.7953 8.73295 86.9146 8.38494C87.0372 8.03693 87.0985 7.64086 87.0985 7.19673C87.0985 6.7526 87.0372 6.35653 86.9146 6.00852C86.7953 5.66051 86.618 5.38542 86.3826 5.18324C86.1473 4.98106 85.854 4.87997 85.5027 4.87997C85.148 4.87997 84.8497 4.98106 84.6078 5.18324C84.3691 5.38542 84.1885 5.66051 84.0659 6.00852C83.9466 6.35653 83.8869 6.7526 83.8869 7.19673C83.8869 7.64086 83.9466 8.03693 84.0659 8.38494C84.1885 8.73295 84.3691 9.00805 84.6078 9.21023C84.8497 9.40909 85.148 9.50852 85.5027 9.50852ZM96.9821 5.54119L95.0431 5.66051C95.01 5.49479 94.9387 5.34564 94.8294 5.21307C94.72 5.07718 94.5758 4.96946 94.3968 4.88991C94.2212 4.80705 94.0107 4.76562 93.7654 4.76562C93.4373 4.76562 93.1606 4.83523 92.9352 4.97443C92.7098 5.11032 92.5971 5.29261 92.5971 5.52131C92.5971 5.7036 92.67 5.85772 92.8159 5.98366C92.9617 6.10961 93.2119 6.2107 93.5666 6.28693L94.9487 6.56534C95.6911 6.7178 96.2446 6.96307 96.6092 7.30114C96.9738 7.6392 97.1561 8.08333 97.1561 8.63352C97.1561 9.134 97.0086 9.57315 96.7136 9.95099C96.4219 10.3288 96.0209 10.6238 95.5105 10.8359C95.0034 11.0447 94.4184 11.1491 93.7555 11.1491C92.7446 11.1491 91.9392 10.9387 91.3393 10.5178C90.7427 10.0935 90.3931 9.51681 90.2903 8.78764L92.3734 8.67827C92.4364 8.98651 92.5888 9.22183 92.8308 9.38423C93.0727 9.54332 93.3826 9.62287 93.7605 9.62287C94.1317 9.62287 94.43 9.55161 94.6554 9.40909C94.8841 9.26326 95.0001 9.07599 95.0034 8.8473C95.0001 8.65507 94.9189 8.49763 94.7598 8.375C94.6007 8.24905 94.3554 8.15294 94.024 8.08665L92.7015 7.82315C91.9558 7.67401 91.4006 7.41548 91.036 7.04759C90.6748 6.67969 90.4941 6.2107 90.4941 5.64062C90.4941 5.15009 90.6267 4.72751 90.8919 4.37287C91.1603 4.01823 91.5365 3.74479 92.0204 3.55256C92.5076 3.36032 93.0777 3.2642 93.7306 3.2642C94.6951 3.2642 95.4541 3.46804 96.0076 3.87571C96.5645 4.28338 96.8893 4.83854 96.9821 5.54119ZM102.551 3.36364V4.95455H97.9528V3.36364H102.551ZM98.9968 1.53409H101.115V8.65341C101.115 8.84896 101.145 9.00142 101.204 9.1108C101.264 9.21686 101.347 9.29143 101.453 9.33452C101.562 9.3776 101.688 9.39915 101.831 9.39915C101.93 9.39915 102.029 9.39086 102.129 9.37429C102.228 9.3544 102.305 9.33949 102.358 9.32955L102.691 10.9055C102.585 10.9387 102.435 10.9768 102.243 11.0199C102.051 11.0663 101.817 11.0945 101.542 11.1044C101.032 11.1243 100.584 11.0563 100.2 10.9006C99.8188 10.7448 99.5221 10.5028 99.31 10.1747C99.0979 9.84659 98.9935 9.43229 98.9968 8.93182V1.53409ZM106.109 11.1442C105.621 11.1442 105.187 11.0597 104.806 10.8906C104.425 10.7183 104.123 10.4647 103.901 10.13C103.683 9.7919 103.573 9.37098 103.573 8.86719C103.573 8.44295 103.651 8.08665 103.807 7.7983C103.963 7.50994 104.175 7.27794 104.443 7.10227C104.712 6.92661 105.017 6.79403 105.358 6.70455C105.703 6.61506 106.064 6.55208 106.442 6.51562C106.886 6.46922 107.244 6.42614 107.516 6.38636C107.787 6.34328 107.985 6.2803 108.107 6.19744C108.23 6.11458 108.291 5.99195 108.291 5.82955V5.79972C108.291 5.48485 108.192 5.24124 107.993 5.06889C107.797 4.89654 107.519 4.81037 107.158 4.81037C106.777 4.81037 106.473 4.89489 106.248 5.06392C106.022 5.22964 105.873 5.43845 105.8 5.69034L103.842 5.53125C103.941 5.06723 104.137 4.66619 104.428 4.32812C104.72 3.98674 105.096 3.7249 105.557 3.54261C106.021 3.35701 106.558 3.2642 107.168 3.2642C107.592 3.2642 107.998 3.31392 108.386 3.41335C108.777 3.51278 109.123 3.6669 109.425 3.87571C109.73 4.08452 109.97 4.35298 110.146 4.68111C110.321 5.00592 110.409 5.39536 110.409 5.84943V11H108.401V9.94105H108.341C108.218 10.1797 108.054 10.3902 107.849 10.5724C107.643 10.7514 107.396 10.8923 107.108 10.995C106.82 11.0945 106.487 11.1442 106.109 11.1442ZM106.715 9.68253C107.027 9.68253 107.302 9.62121 107.54 9.49858C107.779 9.37263 107.966 9.2036 108.102 8.99148C108.238 8.77936 108.306 8.53906 108.306 8.2706V7.46023C108.24 7.50331 108.149 7.54309 108.033 7.57955C107.92 7.61269 107.792 7.64418 107.65 7.67401C107.507 7.70052 107.365 7.72538 107.222 7.74858C107.08 7.76847 106.951 7.78669 106.835 7.80327C106.586 7.83973 106.369 7.89773 106.183 7.97727C105.998 8.05682 105.853 8.16454 105.751 8.30043C105.648 8.433 105.597 8.59872 105.597 8.79759C105.597 9.08594 105.701 9.30634 105.91 9.45881C106.122 9.60795 106.39 9.68253 106.715 9.68253Z" fill="white"/>
</svg>
