<svg width="101" height="12" viewBox="0 0 101 12" fill="none" xmlns="http://www.w3.org/2000/svg">
<path d="M0.884943 0.818182H3.53977L6.34375 7.65909H6.46307L9.26705 0.818182H11.9219V11H9.83381V4.37287H9.74929L7.11435 10.9503H5.69247L3.05753 4.34801H2.97301V11H0.884943V0.818182ZM15.8333 11.1442C15.3461 11.1442 14.9119 11.0597 14.5307 10.8906C14.1496 10.7183 13.848 10.4647 13.6259 10.13C13.4071 9.7919 13.2978 9.37098 13.2978 8.86719C13.2978 8.44295 13.3757 8.08665 13.5314 7.7983C13.6872 7.50994 13.8993 7.27794 14.1678 7.10227C14.4363 6.92661 14.7412 6.79403 15.0826 6.70455C15.4273 6.61506 15.7885 6.55208 16.1664 6.51562C16.6105 6.46922 16.9685 6.42614 17.2402 6.38636C17.512 6.34328 17.7092 6.2803 17.8319 6.19744C17.9545 6.11458 18.0158 5.99195 18.0158 5.82955V5.79972C18.0158 5.48485 17.9164 5.24124 17.7175 5.06889C17.522 4.89654 17.2435 4.81037 16.8823 4.81037C16.5011 4.81037 16.1979 4.89489 15.9725 5.06392C15.7471 5.22964 15.598 5.43845 15.525 5.69034L13.5662 5.53125C13.6657 5.06723 13.8612 4.66619 14.1529 4.32812C14.4445 3.98674 14.8207 3.7249 15.2814 3.54261C15.7454 3.35701 16.2824 3.2642 16.8922 3.2642C17.3165 3.2642 17.7225 3.31392 18.1103 3.41335C18.5014 3.51278 18.8477 3.6669 19.1493 3.87571C19.4542 4.08452 19.6945 4.35298 19.8702 4.68111C20.0459 5.00592 20.1337 5.39536 20.1337 5.84943V11H18.1252V9.94105H18.0655C17.9429 10.1797 17.7788 10.3902 17.5733 10.5724C17.3678 10.7514 17.1209 10.8923 16.8326 10.995C16.5442 11.0945 16.2111 11.1442 15.8333 11.1442ZM16.4398 9.68253C16.7514 9.68253 17.0265 9.62121 17.2651 9.49858C17.5037 9.37263 17.691 9.2036 17.8269 8.99148C17.9628 8.77936 18.0307 8.53906 18.0307 8.2706V7.46023C17.9644 7.50331 17.8733 7.54309 17.7573 7.57955C17.6446 7.61269 17.517 7.64418 17.3745 7.67401C17.2319 7.70052 17.0894 7.72538 16.9469 7.74858C16.8044 7.76847 16.6751 7.78669 16.5591 7.80327C16.3105 7.83973 16.0935 7.89773 15.9078 7.97727C15.7222 8.05682 15.5781 8.16454 15.4753 8.30043C15.3726 8.433 15.3212 8.59872 15.3212 8.79759C15.3212 9.08594 15.4256 9.30634 15.6344 9.45881C15.8465 9.60795 16.115 9.68253 16.4398 9.68253ZM21.7768 11V3.36364H23.8301V4.69602H23.9096C24.0488 4.22206 24.2825 3.86411 24.6106 3.62216C24.9387 3.37689 25.3166 3.25426 25.7441 3.25426C25.8502 3.25426 25.9645 3.26089 26.0872 3.27415C26.2098 3.28741 26.3175 3.30563 26.4103 3.32883V5.2081C26.3109 5.17827 26.1734 5.15175 25.9977 5.12855C25.822 5.10535 25.6613 5.09375 25.5154 5.09375C25.2039 5.09375 24.9255 5.1617 24.6802 5.29759C24.4383 5.43016 24.246 5.61577 24.1035 5.8544C23.9643 6.09304 23.8947 6.36813 23.8947 6.67969V11H21.7768ZM30.6001 11.1491C29.8179 11.1491 29.1451 10.9834 28.5817 10.652C28.0215 10.3172 27.5907 9.85322 27.2891 9.25994C26.9908 8.66667 26.8416 7.9839 26.8416 7.21165C26.8416 6.42945 26.9924 5.74337 27.294 5.15341C27.599 4.56013 28.0315 4.09777 28.5916 3.76633C29.1518 3.43158 29.8179 3.2642 30.5902 3.2642C31.2564 3.2642 31.8397 3.38518 32.3402 3.62713C32.8407 3.86908 33.2367 4.20881 33.5284 4.64631C33.8201 5.08381 33.9808 5.59754 34.0107 6.1875H32.0121C31.9557 5.80634 31.8066 5.49976 31.5646 5.26776C31.326 5.03243 31.0128 4.91477 30.625 4.91477C30.2969 4.91477 30.0102 5.00426 29.7649 5.18324C29.523 5.3589 29.334 5.61577 29.1982 5.95384C29.0623 6.2919 28.9943 6.70123 28.9943 7.18182C28.9943 7.66903 29.0606 8.08333 29.1932 8.42472C29.3291 8.7661 29.5196 9.02628 29.7649 9.20526C30.0102 9.38423 30.2969 9.47372 30.625 9.47372C30.867 9.47372 31.084 9.42401 31.2763 9.32457C31.4718 9.22514 31.6326 9.08097 31.7585 8.89205C31.8878 8.69981 31.9723 8.46946 32.0121 8.20099H34.0107C33.9775 8.78433 33.8184 9.29806 33.5334 9.74219C33.2517 10.183 32.8622 10.5277 32.3651 10.7763C31.8679 11.0249 31.2796 11.1491 30.6001 11.1491ZM38.8169 11.1491C38.0447 11.1491 37.3768 10.9851 36.8134 10.657C36.2533 10.3255 35.8207 9.86482 35.5158 9.27486C35.2109 8.68158 35.0584 7.99384 35.0584 7.21165C35.0584 6.42282 35.2109 5.73343 35.5158 5.14347C35.8207 4.55019 36.2533 4.08949 36.8134 3.76136C37.3768 3.42992 38.0447 3.2642 38.8169 3.2642C39.5892 3.2642 40.2554 3.42992 40.8155 3.76136C41.379 4.08949 41.8132 4.55019 42.1181 5.14347C42.423 5.73343 42.5755 6.42282 42.5755 7.21165C42.5755 7.99384 42.423 8.68158 42.1181 9.27486C41.8132 9.86482 41.379 10.3255 40.8155 10.657C40.2554 10.9851 39.5892 11.1491 38.8169 11.1491ZM38.8269 9.50852C39.1782 9.50852 39.4715 9.40909 39.7069 9.21023C39.9422 9.00805 40.1195 8.73295 40.2388 8.38494C40.3614 8.03693 40.4228 7.64086 40.4228 7.19673C40.4228 6.7526 40.3614 6.35653 40.2388 6.00852C40.1195 5.66051 39.9422 5.38542 39.7069 5.18324C39.4715 4.98106 39.1782 4.87997 38.8269 4.87997C38.4722 4.87997 38.1739 4.98106 37.932 5.18324C37.6934 5.38542 37.5127 5.66051 37.3901 6.00852C37.2708 6.35653 37.2111 6.7526 37.2111 7.19673C37.2111 7.64086 37.2708 8.03693 37.3901 8.38494C37.5127 8.73295 37.6934 9.00805 37.932 9.21023C38.1739 9.40909 38.4722 9.50852 38.8269 9.50852ZM49.0721 0.818182L51.533 8.55398H51.6275L54.0934 0.818182H56.4798L52.9698 11H50.1957L46.6808 0.818182H49.0721ZM57.6655 11V3.36364H59.7834V11H57.6655ZM58.7294 2.37926C58.4145 2.37926 58.1444 2.27486 57.919 2.06605C57.697 1.85393 57.5859 1.60038 57.5859 1.3054C57.5859 1.01373 57.697 0.763494 57.919 0.554688C58.1444 0.342566 58.4145 0.236505 58.7294 0.236505C59.0443 0.236505 59.3127 0.342566 59.5348 0.554688C59.7602 0.763494 59.8729 1.01373 59.8729 1.3054C59.8729 1.60038 59.7602 1.85393 59.5348 2.06605C59.3127 2.27486 59.0443 2.37926 58.7294 2.37926ZM67.8336 5.54119L65.8947 5.66051C65.8616 5.49479 65.7903 5.34564 65.6809 5.21307C65.5716 5.07718 65.4274 4.96946 65.2484 4.88991C65.0727 4.80705 64.8623 4.76562 64.617 4.76562C64.2889 4.76562 64.0121 4.83523 63.7868 4.97443C63.5614 5.11032 63.4487 5.29261 63.4487 5.52131C63.4487 5.7036 63.5216 5.85772 63.6674 5.98366C63.8133 6.10961 64.0635 6.2107 64.4181 6.28693L65.8002 6.56534C66.5427 6.7178 67.0962 6.96307 67.4608 7.30114C67.8253 7.6392 68.0076 8.08333 68.0076 8.63352C68.0076 9.134 67.8601 9.57315 67.5652 9.95099C67.2735 10.3288 66.8725 10.6238 66.362 10.8359C65.8549 11.0447 65.2699 11.1491 64.6071 11.1491C63.5962 11.1491 62.7908 10.9387 62.1909 10.5178C61.5943 10.0935 61.2446 9.51681 61.1419 8.78764L63.225 8.67827C63.2879 8.98651 63.4404 9.22183 63.6824 9.38423C63.9243 9.54332 64.2342 9.62287 64.612 9.62287C64.9833 9.62287 65.2815 9.55161 65.5069 9.40909C65.7356 9.26326 65.8516 9.07599 65.8549 8.8473C65.8516 8.65507 65.7704 8.49763 65.6113 8.375C65.4522 8.24905 65.207 8.15294 64.8755 8.08665L63.5531 7.82315C62.8074 7.67401 62.2522 7.41548 61.8876 7.04759C61.5263 6.67969 61.3457 6.2107 61.3457 5.64062C61.3457 5.15009 61.4783 4.72751 61.7434 4.37287C62.0119 4.01823 62.3881 3.74479 62.872 3.55256C63.3592 3.36032 63.9293 3.2642 64.5822 3.2642C65.5467 3.2642 66.3057 3.46804 66.8592 3.87571C67.416 4.28338 67.7408 4.83854 67.8336 5.54119ZM69.3413 11V3.36364H71.4592V11H69.3413ZM70.4052 2.37926C70.0903 2.37926 69.8202 2.27486 69.5948 2.06605C69.3728 1.85393 69.2617 1.60038 69.2617 1.3054C69.2617 1.01373 69.3728 0.763494 69.5948 0.554688C69.8202 0.342566 70.0903 0.236505 70.4052 0.236505C70.7201 0.236505 70.9885 0.342566 71.2106 0.554688C71.436 0.763494 71.5487 1.01373 71.5487 1.3054C71.5487 1.60038 71.436 1.85393 71.2106 2.06605C70.9885 2.27486 70.7201 2.37926 70.4052 2.37926ZM73.1955 11V0.818182H75.3134V4.64631H75.378C75.4708 4.44081 75.6051 4.23201 75.7807 4.01989C75.9597 3.80445 76.1917 3.62547 76.4767 3.48295C76.7651 3.33712 77.123 3.2642 77.5506 3.2642C78.1074 3.2642 78.6212 3.41004 79.0918 3.7017C79.5624 3.99006 79.9386 4.4259 80.2203 5.00923C80.5021 5.58925 80.6429 6.31676 80.6429 7.19176C80.6429 8.04356 80.5054 8.76278 80.2303 9.34943C79.9585 9.93277 79.5873 10.3752 79.1167 10.6768C78.6493 10.9751 78.1257 11.1243 77.5456 11.1243C77.1346 11.1243 76.785 11.0563 76.4966 10.9205C76.2116 10.7846 75.9779 10.6139 75.7956 10.4084C75.6133 10.1996 75.4741 9.98911 75.378 9.77699H75.2836V11H73.1955ZM75.2686 7.18182C75.2686 7.63589 75.3316 8.03196 75.4576 8.37003C75.5835 8.7081 75.7658 8.97159 76.0044 9.16051C76.2431 9.34612 76.5331 9.43892 76.8745 9.43892C77.2192 9.43892 77.5108 9.34446 77.7495 9.15554C77.9881 8.9633 78.1687 8.69815 78.2914 8.36009C78.4173 8.0187 78.4803 7.62595 78.4803 7.18182C78.4803 6.741 78.419 6.35322 78.2963 6.01847C78.1737 5.68371 77.9931 5.42187 77.7544 5.23295C77.5158 5.04403 77.2225 4.94957 76.8745 4.94957C76.5298 4.94957 76.2381 5.04072 75.9995 5.22301C75.7641 5.4053 75.5835 5.66383 75.4576 5.99858C75.3316 6.33333 75.2686 6.72775 75.2686 7.18182ZM85.5362 11.1491C84.7507 11.1491 84.0746 10.9901 83.5078 10.6719C82.9444 10.3504 82.5102 9.89631 82.2053 9.30966C81.9003 8.7197 81.7479 8.02202 81.7479 7.21662C81.7479 6.43111 81.9003 5.74171 82.2053 5.14844C82.5102 4.55516 82.9394 4.0928 83.4929 3.76136C84.0497 3.42992 84.7027 3.2642 85.4517 3.2642C85.9555 3.2642 86.4245 3.34541 86.8587 3.50781C87.2962 3.6669 87.6773 3.9072 88.0021 4.22869C88.3303 4.55019 88.5855 4.95455 88.7678 5.44176C88.95 5.92566 89.0412 6.49242 89.0412 7.14205V7.72372H82.593V6.41122H87.0476C87.0476 6.1063 86.9813 5.83617 86.8487 5.60085C86.7161 5.36553 86.5322 5.18158 86.2969 5.04901C86.0649 4.91312 85.7947 4.84517 85.4865 4.84517C85.165 4.84517 84.88 4.91974 84.6314 5.06889C84.3861 5.21473 84.1939 5.41193 84.0547 5.66051C83.9155 5.90578 83.8442 6.17921 83.8409 6.48082V7.72869C83.8409 8.10653 83.9105 8.433 84.0497 8.7081C84.1922 8.98319 84.3928 9.19531 84.6513 9.34446C84.9098 9.49361 85.2164 9.56818 85.571 9.56818C85.8063 9.56818 86.0218 9.53504 86.2173 9.46875C86.4129 9.40246 86.5803 9.30303 86.7195 9.17045C86.8587 9.03788 86.9647 8.87547 87.0376 8.68324L88.9964 8.8125C88.897 9.28314 88.6932 9.69413 88.3849 10.0455C88.08 10.3935 87.6856 10.6652 87.2017 10.8608C86.7211 11.053 86.166 11.1491 85.5362 11.1491ZM92.5412 0.818182V11H90.4233V0.818182H92.5412ZM96.3556 0.818182V11H94.2377V0.818182H96.3556ZM98.0522 11V3.36364H100.17V11H98.0522ZM99.1161 2.37926C98.8013 2.37926 98.5311 2.27486 98.3058 2.06605C98.0837 1.85393 97.9727 1.60038 97.9727 1.3054C97.9727 1.01373 98.0837 0.763494 98.3058 0.554688C98.5311 0.342566 98.8013 0.236505 99.1161 0.236505C99.431 0.236505 99.6995 0.342566 99.9215 0.554688C100.147 0.763494 100.26 1.01373 100.26 1.3054C100.26 1.60038 100.147 1.85393 99.9215 2.06605C99.6995 2.27486 99.431 2.37926 99.1161 2.37926Z" fill="white"/>
</svg>
