<svg width="82" height="12" viewBox="0 0 82 12" fill="none" xmlns="http://www.w3.org/2000/svg">
<path d="M0.218317 11V0.818182H2.37102V9.22514H6.73607V11H0.218317ZM13.0189 7.74858V3.36364H15.1368V11H13.1034V9.61293H13.0239C12.8515 10.0604 12.5648 10.42 12.1638 10.6918C11.7661 10.9635 11.2805 11.0994 10.7071 11.0994C10.1967 11.0994 9.74761 10.9834 9.35983 10.7514C8.97205 10.5194 8.66878 10.1896 8.45003 9.76207C8.23459 9.33452 8.12522 8.82244 8.1219 8.22585V3.36364H10.2398V7.84801C10.2431 8.29877 10.3641 8.65507 10.6027 8.9169C10.8414 9.17874 11.1612 9.30966 11.5622 9.30966C11.8175 9.30966 12.0561 9.25166 12.2782 9.13565C12.5002 9.01634 12.6792 8.84067 12.8151 8.60866C12.9543 8.37666 13.0222 8.08996 13.0189 7.74858ZM20.2812 11.1491C19.499 11.1491 18.8262 10.9834 18.2627 10.652C17.7026 10.3172 17.2717 9.85322 16.9701 9.25994C16.6718 8.66667 16.5226 7.9839 16.5226 7.21165C16.5226 6.42945 16.6735 5.74337 16.9751 5.15341C17.28 4.56013 17.7125 4.09777 18.2726 3.76633C18.8328 3.43158 19.499 3.2642 20.2712 3.2642C20.9374 3.2642 21.5208 3.38518 22.0212 3.62713C22.5217 3.86908 22.9178 4.20881 23.2094 4.64631C23.5011 5.08381 23.6619 5.59754 23.6917 6.1875H21.6931C21.6368 5.80634 21.4876 5.49976 21.2457 5.26776C21.007 5.03243 20.6938 4.91477 20.306 4.91477C19.9779 4.91477 19.6912 5.00426 19.4459 5.18324C19.204 5.3589 19.0151 5.61577 18.8792 5.95384C18.7433 6.2919 18.6753 6.70123 18.6753 7.18182C18.6753 7.66903 18.7416 8.08333 18.8742 8.42472C19.0101 8.7661 19.2007 9.02628 19.4459 9.20526C19.6912 9.38423 19.9779 9.47372 20.306 9.47372C20.548 9.47372 20.7651 9.42401 20.9573 9.32457C21.1529 9.22514 21.3136 9.08097 21.4396 8.89205C21.5688 8.69981 21.6533 8.46946 21.6931 8.20099H23.6917C23.6585 8.78433 23.4994 9.29806 23.2144 9.74219C22.9327 10.183 22.5432 10.5277 22.0461 10.7763C21.5489 11.0249 20.9606 11.1491 20.2812 11.1491ZM27.2252 11.1442C26.738 11.1442 26.3038 11.0597 25.9227 10.8906C25.5415 10.7183 25.2399 10.4647 25.0179 10.13C24.7991 9.7919 24.6897 9.37098 24.6897 8.86719C24.6897 8.44295 24.7676 8.08665 24.9234 7.7983C25.0792 7.50994 25.2913 7.27794 25.5598 7.10227C25.8282 6.92661 26.1331 6.79403 26.4745 6.70455C26.8192 6.61506 27.1805 6.55208 27.5583 6.51562C28.0025 6.46922 28.3604 6.42614 28.6322 6.38636C28.904 6.34328 29.1012 6.2803 29.2238 6.19744C29.3465 6.11458 29.4078 5.99195 29.4078 5.82955V5.79972C29.4078 5.48485 29.3083 5.24124 29.1095 5.06889C28.9139 4.89654 28.6355 4.81037 28.2742 4.81037C27.8931 4.81037 27.5898 4.89489 27.3644 5.06392C27.1391 5.22964 26.9899 5.43845 26.917 5.69034L24.9582 5.53125C25.0576 5.06723 25.2532 4.66619 25.5448 4.32812C25.8365 3.98674 26.2127 3.7249 26.6734 3.54261C27.1374 3.35701 27.6743 3.2642 28.2842 3.2642C28.7084 3.2642 29.1144 3.31392 29.5022 3.41335C29.8933 3.51278 30.2397 3.6669 30.5413 3.87571C30.8462 4.08452 31.0865 4.35298 31.2622 4.68111C31.4378 5.00592 31.5257 5.39536 31.5257 5.84943V11H29.5171V9.94105H29.4575C29.3349 10.1797 29.1708 10.3902 28.9653 10.5724C28.7598 10.7514 28.5129 10.8923 28.2245 10.995C27.9362 11.0945 27.6031 11.1442 27.2252 11.1442ZM27.8318 9.68253C28.1433 9.68253 28.4184 9.62121 28.6571 9.49858C28.8957 9.37263 29.083 9.2036 29.2188 8.99148C29.3547 8.77936 29.4227 8.53906 29.4227 8.2706V7.46023C29.3564 7.50331 29.2653 7.54309 29.1492 7.57955C29.0366 7.61269 28.909 7.64418 28.7664 7.67401C28.6239 7.70052 28.4814 7.72538 28.3389 7.74858C28.1964 7.76847 28.0671 7.78669 27.9511 7.80327C27.7025 7.83973 27.4854 7.89773 27.2998 7.97727C27.1142 8.05682 26.97 8.16454 26.8673 8.30043C26.7645 8.433 26.7132 8.59872 26.7132 8.79759C26.7132 9.08594 26.8176 9.30634 27.0264 9.45881C27.2385 9.60795 27.507 9.68253 27.8318 9.68253ZM38.2883 0.818182L40.7492 8.55398H40.8437L43.3096 0.818182H45.6959L42.186 11H39.4119L35.8969 0.818182H38.2883ZM46.8817 11V3.36364H48.9996V11H46.8817ZM47.9456 2.37926C47.6307 2.37926 47.3606 2.27486 47.1352 2.06605C46.9132 1.85393 46.8021 1.60038 46.8021 1.3054C46.8021 1.01373 46.9132 0.763494 47.1352 0.554688C47.3606 0.342566 47.6307 0.236505 47.9456 0.236505C48.2605 0.236505 48.5289 0.342566 48.751 0.554688C48.9764 0.763494 49.0891 1.01373 49.0891 1.3054C49.0891 1.60038 48.9764 1.85393 48.751 2.06605C48.5289 2.27486 48.2605 2.37926 47.9456 2.37926ZM57.8154 3.36364L55.1457 11H52.7593L50.0896 3.36364H52.3268L53.9127 8.82741H53.9923L55.5733 3.36364H57.8154ZM58.8992 11V3.36364H61.0171V11H58.8992ZM59.9632 2.37926C59.6483 2.37926 59.3782 2.27486 59.1528 2.06605C58.9307 1.85393 58.8197 1.60038 58.8197 1.3054C58.8197 1.01373 58.9307 0.763494 59.1528 0.554688C59.3782 0.342566 59.6483 0.236505 59.9632 0.236505C60.278 0.236505 60.5465 0.342566 60.7686 0.554688C60.9939 0.763494 61.1066 1.01373 61.1066 1.3054C61.1066 1.60038 60.9939 1.85393 60.7686 2.06605C60.5465 2.27486 60.278 2.37926 59.9632 2.37926ZM64.8913 11.1442C64.404 11.1442 63.9699 11.0597 63.5887 10.8906C63.2075 10.7183 62.9059 10.4647 62.6839 10.13C62.4651 9.7919 62.3557 9.37098 62.3557 8.86719C62.3557 8.44295 62.4336 8.08665 62.5894 7.7983C62.7452 7.50994 62.9573 7.27794 63.2258 7.10227C63.4942 6.92661 63.7992 6.79403 64.1405 6.70455C64.4852 6.61506 64.8465 6.55208 65.2244 6.51562C65.6685 6.46922 66.0264 6.42614 66.2982 6.38636C66.57 6.34328 66.7672 6.2803 66.8898 6.19744C67.0125 6.11458 67.0738 5.99195 67.0738 5.82955V5.79972C67.0738 5.48485 66.9744 5.24124 66.7755 5.06889C66.5799 4.89654 66.3015 4.81037 65.9403 4.81037C65.5591 4.81037 65.2558 4.89489 65.0305 5.06392C64.8051 5.22964 64.6559 5.43845 64.583 5.69034L62.6242 5.53125C62.7236 5.06723 62.9192 4.66619 63.2109 4.32812C63.5025 3.98674 63.8787 3.7249 64.3394 3.54261C64.8034 3.35701 65.3404 3.2642 65.9502 3.2642C66.3744 3.2642 66.7805 3.31392 67.1682 3.41335C67.5593 3.51278 67.9057 3.6669 68.2073 3.87571C68.5122 4.08452 68.7525 4.35298 68.9282 4.68111C69.1039 5.00592 69.1917 5.39536 69.1917 5.84943V11H67.1832V9.94105H67.1235C67.0009 10.1797 66.8368 10.3902 66.6313 10.5724C66.4258 10.7514 66.1789 10.8923 65.8905 10.995C65.6022 11.0945 65.2691 11.1442 64.8913 11.1442ZM65.4978 9.68253C65.8093 9.68253 66.0844 9.62121 66.3231 9.49858C66.5617 9.37263 66.749 9.2036 66.8849 8.99148C67.0208 8.77936 67.0887 8.53906 67.0887 8.2706V7.46023C67.0224 7.50331 66.9313 7.54309 66.8153 7.57955C66.7026 7.61269 66.575 7.64418 66.4325 7.67401C66.2899 7.70052 66.1474 7.72538 66.0049 7.74858C65.8624 7.76847 65.7331 7.78669 65.6171 7.80327C65.3685 7.83973 65.1514 7.89773 64.9658 7.97727C64.7802 8.05682 64.636 8.16454 64.5333 8.30043C64.4306 8.433 64.3792 8.59872 64.3792 8.79759C64.3792 9.08594 64.4836 9.30634 64.6924 9.45881C64.9045 9.60795 65.173 9.68253 65.4978 9.68253ZM72.9527 6.58523V11H70.8348V3.36364H72.8533V4.71094H72.9427C73.1118 4.26681 73.3952 3.91548 73.7929 3.65696C74.1906 3.39512 74.6729 3.2642 75.2396 3.2642C75.7699 3.2642 76.2323 3.38021 76.6267 3.61222C77.0211 3.84422 77.3277 4.17566 77.5464 4.60653C77.7652 5.03409 77.8746 5.54451 77.8746 6.13778V11H75.7567V6.51562C75.76 6.0483 75.6407 5.68371 75.3987 5.42188C75.1568 5.15672 74.8237 5.02415 74.3994 5.02415C74.1144 5.02415 73.8625 5.08546 73.6437 5.2081C73.4283 5.33073 73.2593 5.50971 73.1366 5.74503C73.0173 5.97704 72.956 6.2571 72.9527 6.58523ZM79.5438 11V3.36364H81.6617V11H79.5438ZM80.6077 2.37926C80.2928 2.37926 80.0227 2.27486 79.7973 2.06605C79.5753 1.85393 79.4642 1.60038 79.4642 1.3054C79.4642 1.01373 79.5753 0.763494 79.7973 0.554688C80.0227 0.342566 80.2928 0.236505 80.6077 0.236505C80.9226 0.236505 81.191 0.342566 81.4131 0.554688C81.6385 0.763494 81.7512 1.01373 81.7512 1.3054C81.7512 1.60038 81.6385 1.85393 81.4131 2.06605C81.191 2.27486 80.9226 2.37926 80.6077 2.37926Z" fill="white"/>
</svg>
