<svg width="81" height="12" viewBox="0 0 81 12" fill="none" xmlns="http://www.w3.org/2000/svg">
<path d="M2.70439 0.818182V11H0.551691V0.818182H2.70439ZM11.5551 3.36364L8.88532 11H6.49896L3.82921 3.36364H6.06643L7.65237 8.82741H7.73191L9.31288 3.36364H11.5551ZM14.6114 11.1442C14.1241 11.1442 13.6899 11.0597 13.3088 10.8906C12.9276 10.7183 12.626 10.4647 12.404 10.13C12.1852 9.7919 12.0758 9.37098 12.0758 8.86719C12.0758 8.44295 12.1537 8.08665 12.3095 7.7983C12.4653 7.50994 12.6774 7.27794 12.9459 7.10227C13.2143 6.92661 13.5193 6.79403 13.8606 6.70455C14.2053 6.61506 14.5666 6.55208 14.9444 6.51562C15.3886 6.46922 15.7465 6.42614 16.0183 6.38636C16.2901 6.34328 16.4873 6.2803 16.6099 6.19744C16.7326 6.11458 16.7939 5.99195 16.7939 5.82955V5.79972C16.7939 5.48485 16.6944 5.24124 16.4956 5.06889C16.3 4.89654 16.0216 4.81037 15.6604 4.81037C15.2792 4.81037 14.9759 4.89489 14.7506 5.06392C14.5252 5.22964 14.376 5.43845 14.3031 5.69034L12.3443 5.53125C12.4437 5.06723 12.6393 4.66619 12.931 4.32812C13.2226 3.98674 13.5988 3.7249 14.0595 3.54261C14.5235 3.35701 15.0605 3.2642 15.6703 3.2642C16.0945 3.2642 16.5006 3.31392 16.8883 3.41335C17.2794 3.51278 17.6258 3.6669 17.9274 3.87571C18.2323 4.08452 18.4726 4.35298 18.6483 4.68111C18.8239 5.00592 18.9118 5.39536 18.9118 5.84943V11H16.9033V9.94105H16.8436C16.721 10.1797 16.5569 10.3902 16.3514 10.5724C16.1459 10.7514 15.899 10.8923 15.6106 10.995C15.3223 11.0945 14.9892 11.1442 14.6114 11.1442ZM15.2179 9.68253C15.5294 9.68253 15.8045 9.62121 16.0432 9.49858C16.2818 9.37263 16.4691 9.2036 16.605 8.99148C16.7408 8.77936 16.8088 8.53906 16.8088 8.2706V7.46023C16.7425 7.50331 16.6514 7.54309 16.5354 7.57955C16.4227 7.61269 16.2951 7.64418 16.1525 7.67401C16.01 7.70052 15.8675 7.72538 15.725 7.74858C15.5825 7.76847 15.4532 7.78669 15.3372 7.80327C15.0886 7.83973 14.8715 7.89773 14.6859 7.97727C14.5003 8.05682 14.3561 8.16454 14.2534 8.30043C14.1506 8.433 14.0993 8.59872 14.0993 8.79759C14.0993 9.08594 14.2037 9.30634 14.4125 9.45881C14.6246 9.60795 14.8931 9.68253 15.2179 9.68253ZM22.6728 6.58523V11H20.5549V3.36364H22.5734V4.71094H22.6628C22.8319 4.26681 23.1153 3.91548 23.513 3.65696C23.9107 3.39512 24.393 3.2642 24.9597 3.2642C25.49 3.2642 25.9524 3.38021 26.3468 3.61222C26.7412 3.84422 27.0478 4.17566 27.2665 4.60653C27.4853 5.03409 27.5947 5.54451 27.5947 6.13778V11H25.4768V6.51562C25.4801 6.0483 25.3608 5.68371 25.1188 5.42188C24.8769 5.15672 24.5438 5.02415 24.1195 5.02415C23.8345 5.02415 23.5826 5.08546 23.3638 5.2081C23.1484 5.33073 22.9794 5.50971 22.8567 5.74503C22.7374 5.97704 22.6761 6.2571 22.6728 6.58523ZM36.1533 11H32.5439V0.818182H36.1831C37.2072 0.818182 38.0889 1.02202 38.828 1.42969C39.5671 1.83404 40.1355 2.41572 40.5332 3.17472C40.9343 3.93371 41.1348 4.84186 41.1348 5.89915C41.1348 6.95975 40.9343 7.87121 40.5332 8.63352C40.1355 9.39583 39.5638 9.98082 38.818 10.3885C38.0756 10.7962 37.1873 11 36.1533 11ZM34.6966 9.15554H36.0638C36.7001 9.15554 37.2354 9.04285 37.6696 8.81747C38.1071 8.58878 38.4352 8.2358 38.654 7.75852C38.876 7.27794 38.9871 6.65814 38.9871 5.89915C38.9871 5.14678 38.876 4.53196 38.654 4.05469C38.4352 3.57741 38.1087 3.22609 37.6746 3.00071C37.2404 2.77533 36.7051 2.66264 36.0687 2.66264H34.6966V9.15554ZM42.6897 11V3.36364H44.8076V11H42.6897ZM43.7536 2.37926C43.4387 2.37926 43.1686 2.27486 42.9432 2.06605C42.7211 1.85393 42.6101 1.60038 42.6101 1.3054C42.6101 1.01373 42.7211 0.763494 42.9432 0.554688C43.1686 0.342566 43.4387 0.236505 43.7536 0.236505C44.0684 0.236505 44.3369 0.342566 44.559 0.554688C44.7843 0.763494 44.897 1.01373 44.897 1.3054C44.897 1.60038 44.7843 1.85393 44.559 2.06605C44.3369 2.27486 44.0684 2.37926 43.7536 2.37926ZM49.7841 11V0.818182H51.9368V9.22514H56.3019V11H49.7841ZM61.1678 11.1491C60.3823 11.1491 59.7062 10.9901 59.1394 10.6719C58.576 10.3504 58.1418 9.89631 57.8368 9.30966C57.5319 8.7197 57.3795 8.02202 57.3795 7.21662C57.3795 6.43111 57.5319 5.74171 57.8368 5.14844C58.1418 4.55516 58.571 4.0928 59.1245 3.76136C59.6813 3.42992 60.3342 3.2642 61.0833 3.2642C61.5871 3.2642 62.0561 3.34541 62.4903 3.50781C62.9278 3.6669 63.3089 3.9072 63.6337 4.22869C63.9618 4.55019 64.2171 4.95455 64.3993 5.44176C64.5816 5.92566 64.6728 6.49242 64.6728 7.14205V7.72372H58.2246V6.41122H62.6792C62.6792 6.1063 62.6129 5.83617 62.4803 5.60085C62.3477 5.36553 62.1638 5.18158 61.9285 5.04901C61.6965 4.91312 61.4263 4.84517 61.1181 4.84517C60.7966 4.84517 60.5116 4.91974 60.263 5.06889C60.0177 5.21473 59.8255 5.41193 59.6863 5.66051C59.5471 5.90578 59.4758 6.17921 59.4725 6.48082V7.72869C59.4725 8.10653 59.5421 8.433 59.6813 8.7081C59.8238 8.98319 60.0243 9.19531 60.2829 9.34446C60.5414 9.49361 60.848 9.56818 61.2026 9.56818C61.4379 9.56818 61.6534 9.53504 61.8489 9.46875C62.0445 9.40246 62.2118 9.30303 62.3511 9.17045C62.4903 9.03788 62.5963 8.87547 62.6692 8.68324L64.628 8.8125C64.5286 9.28314 64.3248 9.69413 64.0165 10.0455C63.7116 10.3935 63.3172 10.6652 62.8333 10.8608C62.3527 11.053 61.7975 11.1491 61.1678 11.1491ZM68.1728 0.818182V11H66.0549V0.818182H68.1728ZM69.8693 11V3.36364H71.9872V11H69.8693ZM70.9333 2.37926C70.6184 2.37926 70.3483 2.27486 70.1229 2.06605C69.9008 1.85393 69.7898 1.60038 69.7898 1.3054C69.7898 1.01373 69.9008 0.763494 70.1229 0.554688C70.3483 0.342566 70.6184 0.236505 70.9333 0.236505C71.2481 0.236505 71.5166 0.342566 71.7387 0.554688C71.964 0.763494 72.0767 1.01373 72.0767 1.3054C72.0767 1.60038 71.964 1.85393 71.7387 2.06605C71.5166 2.27486 71.2481 2.37926 70.9333 2.37926ZM77.1341 11.1491C76.3618 11.1491 75.694 10.9851 75.1305 10.657C74.5704 10.3255 74.1379 9.86482 73.8329 9.27486C73.528 8.68158 73.3756 7.99384 73.3756 7.21165C73.3756 6.42282 73.528 5.73343 73.8329 5.14347C74.1379 4.55019 74.5704 4.08949 75.1305 3.76136C75.694 3.42992 76.3618 3.2642 77.1341 3.2642C77.9063 3.2642 78.5725 3.42992 79.1327 3.76136C79.6961 4.08949 80.1303 4.55019 80.4352 5.14347C80.7401 5.73343 80.8926 6.42282 80.8926 7.21165C80.8926 7.99384 80.7401 8.68158 80.4352 9.27486C80.1303 9.86482 79.6961 10.3255 79.1327 10.657C78.5725 10.9851 77.9063 11.1491 77.1341 11.1491ZM77.144 9.50852C77.4953 9.50852 77.7887 9.40909 78.024 9.21023C78.2593 9.00805 78.4366 8.73295 78.556 8.38494C78.6786 8.03693 78.7399 7.64086 78.7399 7.19673C78.7399 6.7526 78.6786 6.35653 78.556 6.00852C78.4366 5.66051 78.2593 5.38542 78.024 5.18324C77.7887 4.98106 77.4953 4.87997 77.144 4.87997C76.7894 4.87997 76.4911 4.98106 76.2491 5.18324C76.0105 5.38542 75.8299 5.66051 75.7072 6.00852C75.5879 6.35653 75.5283 6.7526 75.5283 7.19673C75.5283 7.64086 75.5879 8.03693 75.7072 8.38494C75.8299 8.73295 76.0105 9.00805 76.2491 9.21023C76.4911 9.40909 76.7894 9.50852 77.144 9.50852Z" fill="white"/>
</svg>
