<svg width="123" height="12" viewBox="0 0 123 12" fill="none" xmlns="http://www.w3.org/2000/svg">
<path d="M4.49432 11H0.884943V0.818182H4.52415C5.5483 0.818182 6.42992 1.02202 7.16903 1.42969C7.90814 1.83404 8.47656 2.41572 8.87429 3.17472C9.27533 3.93371 9.47585 4.84186 9.47585 5.89915C9.47585 6.95975 9.27533 7.87121 8.87429 8.63352C8.47656 9.39583 7.90483 9.98082 7.15909 10.3885C6.41667 10.7962 5.52841 11 4.49432 11ZM3.03764 9.15554H4.40483C5.04119 9.15554 5.57647 9.04285 6.01065 8.81747C6.44815 8.58878 6.77628 8.2358 6.99503 7.75852C7.21709 7.27794 7.32812 6.65814 7.32812 5.89915C7.32812 5.14678 7.21709 4.53196 6.99503 4.05469C6.77628 3.57741 6.44981 3.22609 6.01562 3.00071C5.58144 2.77533 5.04616 2.66264 4.4098 2.66264H3.03764V9.15554ZM13.2083 11.1442C12.7211 11.1442 12.2869 11.0597 11.9057 10.8906C11.5246 10.7183 11.223 10.4647 11.0009 10.13C10.7821 9.7919 10.6728 9.37098 10.6728 8.86719C10.6728 8.44295 10.7507 8.08665 10.9064 7.7983C11.0622 7.50994 11.2743 7.27794 11.5428 7.10227C11.8113 6.92661 12.1162 6.79403 12.4576 6.70455C12.8023 6.61506 13.1635 6.55208 13.5414 6.51562C13.9855 6.46922 14.3435 6.42614 14.6152 6.38636C14.887 6.34328 15.0842 6.2803 15.2069 6.19744C15.3295 6.11458 15.3908 5.99195 15.3908 5.82955V5.79972C15.3908 5.48485 15.2914 5.24124 15.0925 5.06889C14.897 4.89654 14.6185 4.81037 14.2573 4.81037C13.8761 4.81037 13.5729 4.89489 13.3475 5.06392C13.1221 5.22964 12.973 5.43845 12.9 5.69034L10.9412 5.53125C11.0407 5.06723 11.2362 4.66619 11.5279 4.32812C11.8195 3.98674 12.1957 3.7249 12.6564 3.54261C13.1204 3.35701 13.6574 3.2642 14.2672 3.2642C14.6915 3.2642 15.0975 3.31392 15.4853 3.41335C15.8764 3.51278 16.2227 3.6669 16.5243 3.87571C16.8292 4.08452 17.0695 4.35298 17.2452 4.68111C17.4209 5.00592 17.5087 5.39536 17.5087 5.84943V11H15.5002V9.94105H15.4405C15.3179 10.1797 15.1538 10.3902 14.9483 10.5724C14.7428 10.7514 14.4959 10.8923 14.2076 10.995C13.9192 11.0945 13.5861 11.1442 13.2083 11.1442ZM13.8148 9.68253C14.1264 9.68253 14.4015 9.62121 14.6401 9.49858C14.8787 9.37263 15.066 9.2036 15.2019 8.99148C15.3378 8.77936 15.4057 8.53906 15.4057 8.2706V7.46023C15.3394 7.50331 15.2483 7.54309 15.1323 7.57955C15.0196 7.61269 14.892 7.64418 14.7495 7.67401C14.6069 7.70052 14.4644 7.72538 14.3219 7.74858C14.1794 7.76847 14.0501 7.78669 13.9341 7.80327C13.6855 7.83973 13.4685 7.89773 13.2828 7.97727C13.0972 8.05682 12.9531 8.16454 12.8503 8.30043C12.7476 8.433 12.6962 8.59872 12.6962 8.79759C12.6962 9.08594 12.8006 9.30634 13.0094 9.45881C13.2215 9.60795 13.49 9.68253 13.8148 9.68253ZM21.2697 6.58523V11H19.1518V3.36364H21.1703V4.71094H21.2598C21.4288 4.26681 21.7122 3.91548 22.1099 3.65696C22.5076 3.39512 22.9899 3.2642 23.5566 3.2642C24.0869 3.2642 24.5493 3.38021 24.9437 3.61222C25.3381 3.84422 25.6447 4.17566 25.8635 4.60653C26.0822 5.03409 26.1916 5.54451 26.1916 6.13778V11H24.0737V6.51562C24.077 6.0483 23.9577 5.68371 23.7157 5.42188C23.4738 5.15672 23.1407 5.02415 22.7164 5.02415C22.4314 5.02415 22.1795 5.08546 21.9608 5.2081C21.7453 5.33073 21.5763 5.50971 21.4537 5.74503C21.3343 5.97704 21.273 6.2571 21.2697 6.58523ZM27.8608 11V3.36364H29.9787V11H27.8608ZM28.9247 2.37926C28.6098 2.37926 28.3397 2.27486 28.1143 2.06605C27.8923 1.85393 27.7812 1.60038 27.7812 1.3054C27.7812 1.01373 27.8923 0.763494 28.1143 0.554688C28.3397 0.342566 28.6098 0.236505 28.9247 0.236505C29.2396 0.236505 29.508 0.342566 29.7301 0.554688C29.9555 0.763494 30.0682 1.01373 30.0682 1.3054C30.0682 1.60038 29.9555 1.85393 29.7301 2.06605C29.508 2.27486 29.2396 2.37926 28.9247 2.37926ZM35.1554 11.1491C34.3699 11.1491 33.6937 10.9901 33.127 10.6719C32.5635 10.3504 32.1293 9.89631 31.8244 9.30966C31.5195 8.7197 31.367 8.02202 31.367 7.21662C31.367 6.43111 31.5195 5.74171 31.8244 5.14844C32.1293 4.55516 32.5585 4.0928 33.112 3.76136C33.6689 3.42992 34.3218 3.2642 35.0708 3.2642C35.5746 3.2642 36.0436 3.34541 36.4778 3.50781C36.9153 3.6669 37.2965 3.9072 37.6213 4.22869C37.9494 4.55019 38.2046 4.95455 38.3869 5.44176C38.5692 5.92566 38.6603 6.49242 38.6603 7.14205V7.72372H32.2122V6.41122H36.6667C36.6667 6.1063 36.6004 5.83617 36.4679 5.60085C36.3353 5.36553 36.1513 5.18158 35.916 5.04901C35.684 4.91312 35.4139 4.84517 35.1056 4.84517C34.7842 4.84517 34.4991 4.91974 34.2505 5.06889C34.0053 5.21473 33.813 5.41193 33.6738 5.66051C33.5346 5.90578 33.4634 6.17921 33.46 6.48082V7.72869C33.46 8.10653 33.5297 8.433 33.6689 8.7081C33.8114 8.98319 34.0119 9.19531 34.2704 9.34446C34.5289 9.49361 34.8355 9.56818 35.1902 9.56818C35.4255 9.56818 35.6409 9.53504 35.8365 9.46875C36.032 9.40246 36.1994 9.30303 36.3386 9.17045C36.4778 9.03788 36.5839 8.87547 36.6568 8.68324L38.6156 8.8125C38.5162 9.28314 38.3123 9.69413 38.0041 10.0455C37.6992 10.3935 37.3047 10.6652 36.8208 10.8608C36.3403 11.053 35.7851 11.1491 35.1554 11.1491ZM42.1603 0.818182V11H40.0424V0.818182H42.1603ZM47.337 11.1491C46.5515 11.1491 45.8754 10.9901 45.3086 10.6719C44.7451 10.3504 44.311 9.89631 44.006 9.30966C43.7011 8.7197 43.5487 8.02202 43.5487 7.21662C43.5487 6.43111 43.7011 5.74171 44.006 5.14844C44.311 4.55516 44.7402 4.0928 45.2937 3.76136C45.8505 3.42992 46.5034 3.2642 47.2525 3.2642C47.7563 3.2642 48.2253 3.34541 48.6594 3.50781C49.0969 3.6669 49.4781 3.9072 49.8029 4.22869C50.131 4.55019 50.3862 4.95455 50.5685 5.44176C50.7508 5.92566 50.842 6.49242 50.842 7.14205V7.72372H44.3938V6.41122H48.8484C48.8484 6.1063 48.7821 5.83617 48.6495 5.60085C48.5169 5.36553 48.333 5.18158 48.0977 5.04901C47.8656 4.91312 47.5955 4.84517 47.2873 4.84517C46.9658 4.84517 46.6808 4.91974 46.4322 5.06889C46.1869 5.21473 45.9947 5.41193 45.8555 5.66051C45.7163 5.90578 45.645 6.17921 45.6417 6.48082V7.72869C45.6417 8.10653 45.7113 8.433 45.8505 8.7081C45.993 8.98319 46.1935 9.19531 46.4521 9.34446C46.7106 9.49361 47.0172 9.56818 47.3718 9.56818C47.6071 9.56818 47.8226 9.53504 48.0181 9.46875C48.2137 9.40246 48.381 9.30303 48.5202 9.17045C48.6594 9.03788 48.7655 8.87547 48.8384 8.68324L50.7972 8.8125C50.6978 9.28314 50.494 9.69413 50.1857 10.0455C49.8808 10.3935 49.4864 10.6652 49.0025 10.8608C48.5219 11.053 47.9667 11.1491 47.337 11.1491ZM55.5041 11V0.818182H59.5211C60.2934 0.818182 60.9513 0.965672 61.4949 1.26065C62.0384 1.55232 62.4527 1.95833 62.7377 2.47869C63.0261 2.99574 63.1703 3.59233 63.1703 4.26847C63.1703 4.9446 63.0244 5.54119 62.7328 6.05824C62.4411 6.57528 62.0185 6.97798 61.465 7.26634C60.9148 7.55469 60.2486 7.69886 59.4664 7.69886H56.9061V5.97372H59.1184C59.5327 5.97372 59.8741 5.90246 60.1426 5.75994C60.4144 5.61411 60.6165 5.41359 60.7491 5.15838C60.885 4.89986 60.9529 4.60322 60.9529 4.26847C60.9529 3.9304 60.885 3.63542 60.7491 3.38352C60.6165 3.12831 60.4144 2.93111 60.1426 2.7919C59.8708 2.64938 59.5261 2.57812 59.1085 2.57812H57.6568V11H55.5041ZM64.5288 11V3.36364H66.582V4.69602H66.6616C66.8008 4.22206 67.0344 3.86411 67.3626 3.62216C67.6907 3.37689 68.0685 3.25426 68.4961 3.25426C68.6022 3.25426 68.7165 3.26089 68.8391 3.27415C68.9618 3.28741 69.0695 3.30563 69.1623 3.32883V5.2081C69.0629 5.17827 68.9253 5.15175 68.7496 5.12855C68.574 5.10535 68.4132 5.09375 68.2674 5.09375C67.9558 5.09375 67.6774 5.1617 67.4322 5.29759C67.1902 5.43016 66.998 5.61577 66.8555 5.8544C66.7163 6.09304 66.6467 6.36813 66.6467 6.67969V11H64.5288ZM70.2573 11V3.36364H72.3752V11H70.2573ZM71.3212 2.37926C71.0063 2.37926 70.7362 2.27486 70.5108 2.06605C70.2888 1.85393 70.1777 1.60038 70.1777 1.3054C70.1777 1.01373 70.2888 0.763494 70.5108 0.554688C70.7362 0.342566 71.0063 0.236505 71.3212 0.236505C71.6361 0.236505 71.9045 0.342566 72.1266 0.554688C72.352 0.763494 72.4647 1.01373 72.4647 1.3054C72.4647 1.60038 72.352 1.85393 72.1266 2.06605C71.9045 2.27486 71.6361 2.37926 71.3212 2.37926ZM74.0717 11V3.36364H76.0902V4.71094H76.1797C76.3388 4.26349 76.6039 3.91051 76.9751 3.65199C77.3464 3.39347 77.7905 3.2642 78.3075 3.2642C78.8312 3.2642 79.277 3.39512 79.6449 3.65696C80.0128 3.91548 80.258 4.26681 80.3807 4.71094H80.4602C80.616 4.27344 80.8977 3.92377 81.3054 3.66193C81.7164 3.39678 82.2019 3.2642 82.7621 3.2642C83.4747 3.2642 84.053 3.49124 84.4972 3.94531C84.9446 4.39607 85.1683 5.03575 85.1683 5.86435V11H83.0554V6.28196C83.0554 5.85772 82.9427 5.53954 82.7173 5.32741C82.492 5.11529 82.2102 5.00923 81.8722 5.00923C81.4877 5.00923 81.1877 5.13187 80.9723 5.37713C80.7569 5.61908 80.6491 5.93892 80.6491 6.33665V11H78.5959V6.23722C78.5959 5.86269 78.4882 5.56439 78.2727 5.34233C78.0606 5.12026 77.7805 5.00923 77.4325 5.00923C77.1972 5.00923 76.9851 5.06889 76.7962 5.18821C76.6106 5.30421 76.4631 5.46828 76.3537 5.6804C76.2443 5.8892 76.1896 6.13447 76.1896 6.41619V11H74.0717ZM89.0188 11.1442C88.5316 11.1442 88.0974 11.0597 87.7163 10.8906C87.3351 10.7183 87.0335 10.4647 86.8114 10.13C86.5927 9.7919 86.4833 9.37098 86.4833 8.86719C86.4833 8.44295 86.5612 8.08665 86.717 7.7983C86.8728 7.50994 87.0849 7.27794 87.3533 7.10227C87.6218 6.92661 87.9267 6.79403 88.2681 6.70455C88.6128 6.61506 88.9741 6.55208 89.3519 6.51562C89.796 6.46922 90.154 6.42614 90.4258 6.38636C90.6976 6.34328 90.8948 6.2803 91.0174 6.19744C91.14 6.11458 91.2013 5.99195 91.2013 5.82955V5.79972C91.2013 5.48485 91.1019 5.24124 90.9031 5.06889C90.7075 4.89654 90.4291 4.81037 90.0678 4.81037C89.6867 4.81037 89.3834 4.89489 89.158 5.06392C88.9326 5.22964 88.7835 5.43845 88.7106 5.69034L86.7518 5.53125C86.8512 5.06723 87.0468 4.66619 87.3384 4.32812C87.6301 3.98674 88.0063 3.7249 88.467 3.54261C88.931 3.35701 89.4679 3.2642 90.0778 3.2642C90.502 3.2642 90.908 3.31392 91.2958 3.41335C91.6869 3.51278 92.0333 3.6669 92.3349 3.87571C92.6398 4.08452 92.8801 4.35298 93.0558 4.68111C93.2314 5.00592 93.3192 5.39536 93.3192 5.84943V11H91.3107V9.94105H91.2511C91.1284 10.1797 90.9644 10.3902 90.7589 10.5724C90.5534 10.7514 90.3065 10.8923 90.0181 10.995C89.7298 11.0945 89.3967 11.1442 89.0188 11.1442ZM89.6254 9.68253C89.9369 9.68253 90.212 9.62121 90.4506 9.49858C90.6893 9.37263 90.8765 9.2036 91.0124 8.99148C91.1483 8.77936 91.2163 8.53906 91.2163 8.2706V7.46023C91.15 7.50331 91.0588 7.54309 90.9428 7.57955C90.8301 7.61269 90.7025 7.64418 90.56 7.67401C90.4175 7.70052 90.275 7.72538 90.1325 7.74858C89.9899 7.76847 89.8607 7.78669 89.7447 7.80327C89.4961 7.83973 89.279 7.89773 89.0934 7.97727C88.9078 8.05682 88.7636 8.16454 88.6609 8.30043C88.5581 8.433 88.5067 8.59872 88.5067 8.79759C88.5067 9.08594 88.6112 9.30634 88.82 9.45881C89.0321 9.60795 89.3005 9.68253 89.6254 9.68253ZM101.808 3.36364L99.1385 11H96.7521L94.0824 3.36364H96.3196L97.9055 8.82741H97.9851L99.5661 3.36364H101.808ZM106.126 11.1491C105.341 11.1491 104.664 10.9901 104.098 10.6719C103.534 10.3504 103.1 9.89631 102.795 9.30966C102.49 8.7197 102.338 8.02202 102.338 7.21662C102.338 6.43111 102.49 5.74171 102.795 5.14844C103.1 4.55516 103.529 4.0928 104.083 3.76136C104.64 3.42992 105.292 3.2642 106.042 3.2642C106.545 3.2642 107.014 3.34541 107.449 3.50781C107.886 3.6669 108.267 3.9072 108.592 4.22869C108.92 4.55019 109.175 4.95455 109.358 5.44176C109.54 5.92566 109.631 6.49242 109.631 7.14205V7.72372H103.183V6.41122H107.637C107.637 6.1063 107.571 5.83617 107.439 5.60085C107.306 5.36553 107.122 5.18158 106.887 5.04901C106.655 4.91312 106.385 4.84517 106.076 4.84517C105.755 4.84517 105.47 4.91974 105.221 5.06889C104.976 5.21473 104.784 5.41193 104.645 5.66051C104.505 5.90578 104.434 6.17921 104.431 6.48082V7.72869C104.431 8.10653 104.5 8.433 104.64 8.7081C104.782 8.98319 104.983 9.19531 105.241 9.34446C105.5 9.49361 105.806 9.56818 106.161 9.56818C106.396 9.56818 106.612 9.53504 106.807 9.46875C107.003 9.40246 107.17 9.30303 107.309 9.17045C107.449 9.03788 107.555 8.87547 107.627 8.68324L109.586 8.8125C109.487 9.28314 109.283 9.69413 108.975 10.0455C108.67 10.3935 108.275 10.6652 107.792 10.8608C107.311 11.053 106.756 11.1491 106.126 11.1491ZM111.013 11V3.36364H113.066V4.69602H113.146C113.285 4.22206 113.519 3.86411 113.847 3.62216C114.175 3.37689 114.553 3.25426 114.98 3.25426C115.087 3.25426 115.201 3.26089 115.324 3.27415C115.446 3.28741 115.554 3.30563 115.647 3.32883V5.2081C115.547 5.17827 115.41 5.15175 115.234 5.12855C115.058 5.10535 114.898 5.09375 114.752 5.09375C114.44 5.09375 114.162 5.1617 113.917 5.29759C113.675 5.43016 113.482 5.61577 113.34 5.8544C113.201 6.09304 113.131 6.36813 113.131 6.67969V11H111.013ZM118.7 11.1442C118.213 11.1442 117.779 11.0597 117.398 10.8906C117.017 10.7183 116.715 10.4647 116.493 10.13C116.274 9.7919 116.165 9.37098 116.165 8.86719C116.165 8.44295 116.243 8.08665 116.399 7.7983C116.554 7.50994 116.767 7.27794 117.035 7.10227C117.303 6.92661 117.608 6.79403 117.95 6.70455C118.294 6.61506 118.656 6.55208 119.034 6.51562C119.478 6.46922 119.836 6.42614 120.107 6.38636C120.379 6.34328 120.576 6.2803 120.699 6.19744C120.822 6.11458 120.883 5.99195 120.883 5.82955V5.79972C120.883 5.48485 120.784 5.24124 120.585 5.06889C120.389 4.89654 120.111 4.81037 119.749 4.81037C119.368 4.81037 119.065 4.89489 118.84 5.06392C118.614 5.22964 118.465 5.43845 118.392 5.69034L116.433 5.53125C116.533 5.06723 116.728 4.66619 117.02 4.32812C117.312 3.98674 117.688 3.7249 118.149 3.54261C118.613 3.35701 119.15 3.2642 119.759 3.2642C120.184 3.2642 120.59 3.31392 120.977 3.41335C121.369 3.51278 121.715 3.6669 122.017 3.87571C122.321 4.08452 122.562 4.35298 122.737 4.68111C122.913 5.00592 123.001 5.39536 123.001 5.84943V11H120.992V9.94105H120.933C120.81 10.1797 120.646 10.3902 120.441 10.5724C120.235 10.7514 119.988 10.8923 119.7 10.995C119.411 11.0945 119.078 11.1442 118.7 11.1442ZM119.307 9.68253C119.619 9.68253 119.894 9.62121 120.132 9.49858C120.371 9.37263 120.558 9.2036 120.694 8.99148C120.83 8.77936 120.898 8.53906 120.898 8.2706V7.46023C120.832 7.50331 120.74 7.54309 120.624 7.57955C120.512 7.61269 120.384 7.64418 120.242 7.67401C120.099 7.70052 119.957 7.72538 119.814 7.74858C119.672 7.76847 119.542 7.78669 119.426 7.80327C119.178 7.83973 118.961 7.89773 118.775 7.97727C118.589 8.05682 118.445 8.16454 118.343 8.30043C118.24 8.433 118.188 8.59872 118.188 8.79759C118.188 9.08594 118.293 9.30634 118.502 9.45881C118.714 9.60795 118.982 9.68253 119.307 9.68253Z" fill="white"/>
</svg>
