<svg width="116" height="15" viewBox="0 0 116 15" fill="none" xmlns="http://www.w3.org/2000/svg">
<path d="M7.63636 4.10938C7.56676 3.86742 7.46899 3.65365 7.34304 3.46804C7.21709 3.27912 7.06297 3.12003 6.88068 2.99077C6.7017 2.85819 6.49621 2.7571 6.2642 2.6875C6.03551 2.6179 5.78196 2.5831 5.50355 2.5831C4.98319 2.5831 4.52581 2.71236 4.13139 2.97088C3.74029 3.2294 3.43537 3.60559 3.21662 4.09943C2.99787 4.58996 2.88849 5.18987 2.88849 5.89915C2.88849 6.60843 2.99621 7.21165 3.21165 7.70881C3.42708 8.20597 3.73201 8.58546 4.12642 8.8473C4.52083 9.10582 4.98651 9.23509 5.52344 9.23509C6.01065 9.23509 6.42661 9.14891 6.77131 8.97656C7.11932 8.8009 7.38447 8.55398 7.56676 8.2358C7.75237 7.91761 7.84517 7.54143 7.84517 7.10724L8.28267 7.17188H5.65767V5.55114H9.91832V6.83381C9.91832 7.72869 9.7294 8.49763 9.35156 9.14062C8.97372 9.7803 8.45336 10.2741 7.79048 10.6222C7.1276 10.9669 6.36861 11.1392 5.51349 11.1392C4.55895 11.1392 3.72041 10.9287 2.99787 10.5078C2.27533 10.0836 1.71188 9.48201 1.30753 8.70312C0.906487 7.92093 0.705966 6.9929 0.705966 5.91903C0.705966 5.09375 0.825284 4.35795 1.06392 3.71165C1.30587 3.06203 1.64394 2.51184 2.07812 2.06108C2.51231 1.61032 3.01776 1.26728 3.59446 1.03196C4.17116 0.796638 4.79593 0.678977 5.46875 0.678977C6.04545 0.678977 6.58239 0.763494 7.07955 0.932528C7.5767 1.09825 8.01752 1.33357 8.40199 1.63849C8.78977 1.94342 9.1063 2.30634 9.35156 2.72727C9.59683 3.14489 9.75426 3.60559 9.82386 4.10938H7.63636ZM13.6731 11.1442C13.1859 11.1442 12.7517 11.0597 12.3706 10.8906C11.9894 10.7183 11.6878 10.4647 11.4657 10.13C11.247 9.7919 11.1376 9.37098 11.1376 8.86719C11.1376 8.44295 11.2155 8.08665 11.3713 7.7983C11.527 7.50994 11.7392 7.27794 12.0076 7.10227C12.2761 6.92661 12.581 6.79403 12.9224 6.70455C13.2671 6.61506 13.6284 6.55208 14.0062 6.51562C14.4503 6.46922 14.8083 6.42614 15.0801 6.38636C15.3519 6.34328 15.5491 6.2803 15.6717 6.19744C15.7943 6.11458 15.8556 5.99195 15.8556 5.82955V5.79972C15.8556 5.48485 15.7562 5.24124 15.5574 5.06889C15.3618 4.89654 15.0834 4.81037 14.7221 4.81037C14.341 4.81037 14.0377 4.89489 13.8123 5.06392C13.5869 5.22964 13.4378 5.43845 13.3649 5.69034L11.4061 5.53125C11.5055 5.06723 11.7011 4.66619 11.9927 4.32812C12.2844 3.98674 12.6606 3.7249 13.1213 3.54261C13.5853 3.35701 14.1222 3.2642 14.7321 3.2642C15.1563 3.2642 15.5623 3.31392 15.9501 3.41335C16.3412 3.51278 16.6876 3.6669 16.9892 3.87571C17.2941 4.08452 17.5344 4.35298 17.71 4.68111C17.8857 5.00592 17.9735 5.39536 17.9735 5.84943V11H15.965V9.94105H15.9054C15.7827 10.1797 15.6187 10.3902 15.4132 10.5724C15.2077 10.7514 14.9608 10.8923 14.6724 10.995C14.3841 11.0945 14.051 11.1442 13.6731 11.1442ZM14.2797 9.68253C14.5912 9.68253 14.8663 9.62121 15.1049 9.49858C15.3436 9.37263 15.5308 9.2036 15.6667 8.99148C15.8026 8.77936 15.8706 8.53906 15.8706 8.2706V7.46023C15.8043 7.50331 15.7131 7.54309 15.5971 7.57955C15.4844 7.61269 15.3568 7.64418 15.2143 7.67401C15.0718 7.70052 14.9293 7.72538 14.7868 7.74858C14.6442 7.76847 14.515 7.78669 14.399 7.80327C14.1504 7.83973 13.9333 7.89773 13.7477 7.97727C13.5621 8.05682 13.4179 8.16454 13.3152 8.30043C13.2124 8.433 13.161 8.59872 13.161 8.79759C13.161 9.08594 13.2654 9.30634 13.4743 9.45881C13.6864 9.60795 13.9548 9.68253 14.2797 9.68253ZM19.6564 11V0.818182H21.7743V4.64631H21.839C21.9318 4.44081 22.066 4.23201 22.2417 4.01989C22.4206 3.80445 22.6526 3.62547 22.9377 3.48295C23.226 3.33712 23.584 3.2642 24.0115 3.2642C24.5684 3.2642 25.0821 3.41004 25.5527 3.7017C26.0234 3.99006 26.3996 4.4259 26.6813 5.00923C26.963 5.58925 27.1039 6.31676 27.1039 7.19176C27.1039 8.04356 26.9663 8.76278 26.6912 9.34943C26.4194 9.93277 26.0482 10.3752 25.5776 10.6768C25.1103 10.9751 24.5866 11.1243 24.0066 11.1243C23.5956 11.1243 23.2459 11.0563 22.9576 10.9205C22.6725 10.7846 22.4389 10.6139 22.2566 10.4084C22.0743 10.1996 21.9351 9.98911 21.839 9.77699H21.7445V11H19.6564ZM21.7296 7.18182C21.7296 7.63589 21.7926 8.03196 21.9185 8.37003C22.0444 8.7081 22.2267 8.97159 22.4654 9.16051C22.704 9.34612 22.994 9.43892 23.3354 9.43892C23.6801 9.43892 23.9718 9.34446 24.2104 9.15554C24.449 8.9633 24.6297 8.69815 24.7523 8.36009C24.8783 8.0187 24.9412 7.62595 24.9412 7.18182C24.9412 6.741 24.8799 6.35322 24.7573 6.01847C24.6346 5.68371 24.454 5.42187 24.2154 5.23295C23.9767 5.04403 23.6834 4.94957 23.3354 4.94957C22.9907 4.94957 22.699 5.04072 22.4604 5.22301C22.2251 5.4053 22.0444 5.66383 21.9185 5.99858C21.7926 6.33333 21.7296 6.72775 21.7296 7.18182ZM28.517 11V3.36364H30.5703V4.69602H30.6499C30.7891 4.22206 31.0227 3.86411 31.3509 3.62216C31.679 3.37689 32.0568 3.25426 32.4844 3.25426C32.5904 3.25426 32.7048 3.26089 32.8274 3.27415C32.95 3.28741 33.0578 3.30563 33.1506 3.32883V5.2081C33.0511 5.17827 32.9136 5.15175 32.7379 5.12855C32.5623 5.10535 32.4015 5.09375 32.2557 5.09375C31.9441 5.09375 31.6657 5.1617 31.4205 5.29759C31.1785 5.43016 30.9863 5.61577 30.8438 5.8544C30.7045 6.09304 30.6349 6.36813 30.6349 6.67969V11H28.517ZM34.2456 11V3.36364H36.3635V11H34.2456ZM35.3095 2.37926C34.9946 2.37926 34.7245 2.27486 34.4991 2.06605C34.277 1.85393 34.166 1.60038 34.166 1.3054C34.166 1.01373 34.277 0.763494 34.4991 0.554688C34.7245 0.342566 34.9946 0.236505 35.3095 0.236505C35.6243 0.236505 35.8928 0.342566 36.1149 0.554688C36.3403 0.763494 36.4529 1.01373 36.4529 1.3054C36.4529 1.60038 36.3403 1.85393 36.1149 2.06605C35.8928 2.27486 35.6243 2.37926 35.3095 2.37926ZM41.5401 11.1491C40.7546 11.1491 40.0785 10.9901 39.5117 10.6719C38.9483 10.3504 38.5141 9.89631 38.2092 9.30966C37.9042 8.7197 37.7518 8.02202 37.7518 7.21662C37.7518 6.43111 37.9042 5.74171 38.2092 5.14844C38.5141 4.55516 38.9433 4.0928 39.4968 3.76136C40.0536 3.42992 40.7066 3.2642 41.4556 3.2642C41.9594 3.2642 42.4284 3.34541 42.8626 3.50781C43.3001 3.6669 43.6812 3.9072 44.006 4.22869C44.3342 4.55019 44.5894 4.95455 44.7717 5.44176C44.954 5.92566 45.0451 6.49242 45.0451 7.14205V7.72372H38.5969V6.41122H43.0515C43.0515 6.1063 42.9852 5.83617 42.8526 5.60085C42.7201 5.36553 42.5361 5.18158 42.3008 5.04901C42.0688 4.91312 41.7987 4.84517 41.4904 4.84517C41.1689 4.84517 40.8839 4.91974 40.6353 5.06889C40.39 5.21473 40.1978 5.41193 40.0586 5.66051C39.9194 5.90578 39.8481 6.17921 39.8448 6.48082V7.72869C39.8448 8.10653 39.9144 8.433 40.0536 8.7081C40.1961 8.98319 40.3967 9.19531 40.6552 9.34446C40.9137 9.49361 41.2203 9.56818 41.5749 9.56818C41.8103 9.56818 42.0257 9.53504 42.2212 9.46875C42.4168 9.40246 42.5842 9.30303 42.7234 9.17045C42.8626 9.03788 42.9686 8.87547 43.0415 8.68324L45.0004 8.8125C44.9009 9.28314 44.6971 9.69413 44.3888 10.0455C44.0839 10.3935 43.6895 10.6652 43.2056 10.8608C42.725 11.053 42.1699 11.1491 41.5401 11.1491ZM48.5451 0.818182V11H46.4272V0.818182H48.5451ZM59.0451 3.74645C59.0053 3.34541 58.8346 3.03385 58.533 2.81179C58.2314 2.58972 57.8221 2.47869 57.305 2.47869C56.9537 2.47869 56.6571 2.52841 56.4151 2.62784C56.1732 2.72396 55.9876 2.85819 55.8583 3.03054C55.7324 3.20289 55.6694 3.39844 55.6694 3.61719C55.6628 3.79948 55.7009 3.95857 55.7837 4.09446C55.8699 4.23035 55.9876 4.34801 56.1367 4.44744C56.2859 4.54356 56.4582 4.62808 56.6538 4.70099C56.8493 4.7706 57.0581 4.83026 57.2802 4.87997L58.195 5.09872C58.6391 5.19815 59.0468 5.33073 59.418 5.49645C59.7892 5.66217 60.1107 5.866 60.3825 6.10795C60.6542 6.34991 60.8647 6.63494 61.0138 6.96307C61.1663 7.29119 61.2442 7.66738 61.2475 8.09162C61.2442 8.71473 61.0851 9.25497 60.7702 9.71236C60.4587 10.1664 60.0079 10.5194 59.418 10.7713C58.8313 11.0199 58.1237 11.1442 57.2951 11.1442C56.4731 11.1442 55.7572 11.0182 55.1474 10.7663C54.5408 10.5144 54.0669 10.1416 53.7255 9.64773C53.3874 9.15057 53.2101 8.53575 53.1935 7.80327H55.2766C55.2998 8.14465 55.3976 8.42969 55.57 8.65838C55.7456 8.88376 55.9793 9.05445 56.271 9.17045C56.5659 9.28314 56.899 9.33949 57.2702 9.33949C57.6348 9.33949 57.9513 9.28646 58.2198 9.1804C58.4916 9.07434 58.7021 8.92685 58.8512 8.73793C59.0004 8.54901 59.0749 8.33191 59.0749 8.08665C59.0749 7.85795 59.007 7.66572 58.8711 7.50994C58.7385 7.35417 58.543 7.22159 58.2844 7.11222C58.0292 7.00284 57.716 6.90341 57.3448 6.81392L56.2362 6.53551C55.3777 6.3267 54.6999 6.00024 54.2028 5.55611C53.7056 5.11198 53.4587 4.51373 53.462 3.76136C53.4587 3.14489 53.6228 2.6063 53.9542 2.1456C54.2889 1.6849 54.748 1.32528 55.3313 1.06676C55.9147 0.808238 56.5775 0.678977 57.32 0.678977C58.0756 0.678977 58.7352 0.808238 59.2987 1.06676C59.8654 1.32528 60.3062 1.6849 60.6211 2.1456C60.936 2.6063 61.0984 3.13991 61.1083 3.74645H59.0451ZM62.6557 13.8636V3.36364H64.7438V4.64631H64.8382C64.931 4.44081 65.0653 4.23201 65.2409 4.01989C65.4199 3.80445 65.6519 3.62547 65.937 3.48295C66.2253 3.33712 66.5833 3.2642 67.0108 3.2642C67.5676 3.2642 68.0814 3.41004 68.552 3.7017C69.0227 3.99006 69.3989 4.4259 69.6806 5.00923C69.9623 5.58925 70.1032 6.31676 70.1032 7.19176C70.1032 8.04356 69.9656 8.76278 69.6905 9.34943C69.4187 9.93277 69.0475 10.3752 68.5769 10.6768C68.1096 10.9751 67.5859 11.1243 67.0059 11.1243C66.5949 11.1243 66.2452 11.0563 65.9569 10.9205C65.6718 10.7846 65.4382 10.6139 65.2559 10.4084C65.0736 10.1996 64.9344 9.98911 64.8382 9.77699H64.7736V13.8636H62.6557ZM64.7289 7.18182C64.7289 7.63589 64.7918 8.03196 64.9178 8.37003C65.0437 8.7081 65.226 8.97159 65.4647 9.16051C65.7033 9.34612 65.9933 9.43892 66.3347 9.43892C66.6794 9.43892 66.9711 9.34446 67.2097 9.15554C67.4483 8.9633 67.629 8.69815 67.7516 8.36009C67.8775 8.0187 67.9405 7.62595 67.9405 7.18182C67.9405 6.741 67.8792 6.35322 67.7566 6.01847C67.6339 5.68371 67.4533 5.42187 67.2147 5.23295C66.976 5.04403 66.6827 4.94957 66.3347 4.94957C65.99 4.94957 65.6983 5.04072 65.4597 5.22301C65.2244 5.4053 65.0437 5.66383 64.9178 5.99858C64.7918 6.33333 64.7289 6.72775 64.7289 7.18182ZM71.5151 11V3.36364H73.633V11H71.5151ZM72.579 2.37926C72.2641 2.37926 71.994 2.27486 71.7686 2.06605C71.5466 1.85393 71.4355 1.60038 71.4355 1.3054C71.4355 1.01373 71.5466 0.763494 71.7686 0.554688C71.994 0.342566 72.2641 0.236505 72.579 0.236505C72.8939 0.236505 73.1623 0.342566 73.3844 0.554688C73.6098 0.763494 73.7225 1.01373 73.7225 1.3054C73.7225 1.60038 73.6098 1.85393 73.3844 2.06605C73.1623 2.27486 72.8939 2.37926 72.579 2.37926ZM78.7798 11.1491C77.9976 11.1491 77.3248 10.9834 76.7614 10.652C76.2012 10.3172 75.7704 9.85322 75.4688 9.25994C75.1705 8.66667 75.0213 7.9839 75.0213 7.21165C75.0213 6.42945 75.1721 5.74337 75.4737 5.15341C75.7786 4.56013 76.2112 4.09777 76.7713 3.76633C77.3314 3.43158 77.9976 3.2642 78.7699 3.2642C79.4361 3.2642 80.0194 3.38518 80.5199 3.62713C81.0204 3.86908 81.4164 4.20881 81.7081 4.64631C81.9998 5.08381 82.1605 5.59754 82.1903 6.1875H80.1918C80.1354 5.80634 79.9863 5.49976 79.7443 5.26776C79.5057 5.03243 79.1925 4.91477 78.8047 4.91477C78.4766 4.91477 78.1899 5.00426 77.9446 5.18324C77.7027 5.3589 77.5137 5.61577 77.3778 5.95384C77.242 6.2919 77.174 6.70123 77.174 7.18182C77.174 7.66903 77.2403 8.08333 77.3729 8.42472C77.5088 8.7661 77.6993 9.02628 77.9446 9.20526C78.1899 9.38423 78.4766 9.47372 78.8047 9.47372C79.0466 9.47372 79.2637 9.42401 79.456 9.32457C79.6515 9.22514 79.8123 9.08097 79.9382 8.89205C80.0675 8.69981 80.152 8.46946 80.1918 8.20099H82.1903C82.1572 8.78433 81.9981 9.29806 81.7131 9.74219C81.4313 10.183 81.0419 10.5277 80.5447 10.7763C80.0476 11.0249 79.4593 11.1491 78.7798 11.1491ZM88.4434 7.74858V3.36364H90.5613V11H88.5279V9.61293H88.4483C88.276 10.0604 87.9893 10.42 87.5882 10.6918C87.1905 10.9635 86.705 11.0994 86.1316 11.0994C85.6212 11.0994 85.1721 10.9834 84.7843 10.7514C84.3965 10.5194 84.0932 10.1896 83.8745 9.76207C83.659 9.33452 83.5497 8.82244 83.5463 8.22585V3.36364H85.6642V7.84801C85.6676 8.29877 85.7885 8.65507 86.0272 8.9169C86.2658 9.17874 86.5856 9.30966 86.9867 9.30966C87.2419 9.30966 87.4805 9.25166 87.7026 9.13565C87.9247 9.01634 88.1036 8.84067 88.2395 8.60866C88.3787 8.37666 88.4467 8.08996 88.4434 7.74858ZM95.6957 14.0227C95.0096 14.0227 94.4213 13.9283 93.9308 13.7393C93.4435 13.5537 93.0558 13.3002 92.7674 12.9787C92.479 12.6572 92.2918 12.2959 92.2056 11.8949L94.1644 11.6314C94.2241 11.7839 94.3185 11.9264 94.4478 12.0589C94.5771 12.1915 94.7478 12.2976 94.9599 12.3771C95.1753 12.46 95.4371 12.5014 95.7454 12.5014C96.2061 12.5014 96.5856 12.3887 96.8839 12.1634C97.1855 11.9413 97.3363 11.5684 97.3363 11.0447V9.64773H97.2468C97.154 9.85985 97.0148 10.0604 96.8292 10.2493C96.6436 10.4382 96.4049 10.5923 96.1133 10.7116C95.8216 10.831 95.4736 10.8906 95.0692 10.8906C94.4959 10.8906 93.9738 10.758 93.5032 10.4929C93.0359 10.2244 92.663 9.8151 92.3846 9.26491C92.1095 8.71141 91.9719 8.01207 91.9719 7.1669C91.9719 6.30185 92.1128 5.57931 92.3945 4.99929C92.6763 4.41927 93.0508 3.98509 93.5181 3.69673C93.9888 3.40838 94.5041 3.2642 95.0643 3.2642C95.4918 3.2642 95.8498 3.33712 96.1381 3.48295C96.4265 3.62547 96.6585 3.80445 96.8342 4.01989C97.0131 4.23201 97.1507 4.44081 97.2468 4.64631H97.3263V3.36364H99.4293V11.0746C99.4293 11.7242 99.2702 12.2678 98.9521 12.7053C98.6339 13.1428 98.1931 13.4709 97.6296 13.6896C97.0695 13.9117 96.4248 14.0227 95.6957 14.0227ZM95.7404 9.29972C96.0818 9.29972 96.3701 9.2152 96.6055 9.04616C96.8441 8.87382 97.0264 8.62855 97.1523 8.31037C97.2816 7.98887 97.3462 7.6044 97.3462 7.15696C97.3462 6.70952 97.2833 6.32173 97.1573 5.99361C97.0314 5.66217 96.8491 5.4053 96.6104 5.22301C96.3718 5.04072 96.0818 4.94957 95.7404 4.94957C95.3924 4.94957 95.0991 5.04403 94.8604 5.23295C94.6218 5.41856 94.4412 5.67708 94.3185 6.00852C94.1959 6.33996 94.1346 6.72277 94.1346 7.15696C94.1346 7.59777 94.1959 7.97893 94.3185 8.30043C94.4445 8.61861 94.6251 8.86553 94.8604 9.04119C95.0991 9.21354 95.3924 9.29972 95.7404 9.29972ZM103.233 0.818182V11H101.115V0.818182H103.233ZM104.929 11V3.36364H107.047V11H104.929ZM105.993 2.37926C105.678 2.37926 105.408 2.27486 105.183 2.06605C104.961 1.85393 104.85 1.60038 104.85 1.3054C104.85 1.01373 104.961 0.763494 105.183 0.554688C105.408 0.342566 105.678 0.236505 105.993 0.236505C106.308 0.236505 106.576 0.342566 106.798 0.554688C107.024 0.763494 107.137 1.01373 107.137 1.3054C107.137 1.60038 107.024 1.85393 106.798 2.06605C106.576 2.27486 106.308 2.37926 105.993 2.37926ZM110.921 11.1442C110.434 11.1442 110 11.0597 109.619 10.8906C109.237 10.7183 108.936 10.4647 108.714 10.13C108.495 9.7919 108.386 9.37098 108.386 8.86719C108.386 8.44295 108.464 8.08665 108.619 7.7983C108.775 7.50994 108.987 7.27794 109.256 7.10227C109.524 6.92661 109.829 6.79403 110.17 6.70455C110.515 6.61506 110.876 6.55208 111.254 6.51562C111.698 6.46922 112.056 6.42614 112.328 6.38636C112.6 6.34328 112.797 6.2803 112.92 6.19744C113.042 6.11458 113.104 5.99195 113.104 5.82955V5.79972C113.104 5.48485 113.004 5.24124 112.805 5.06889C112.61 4.89654 112.331 4.81037 111.97 4.81037C111.589 4.81037 111.286 4.89489 111.06 5.06392C110.835 5.22964 110.686 5.43845 110.613 5.69034L108.654 5.53125C108.754 5.06723 108.949 4.66619 109.241 4.32812C109.532 3.98674 109.909 3.7249 110.369 3.54261C110.833 3.35701 111.37 3.2642 111.98 3.2642C112.404 3.2642 112.81 3.31392 113.198 3.41335C113.589 3.51278 113.936 3.6669 114.237 3.87571C114.542 4.08452 114.782 4.35298 114.958 4.68111C115.134 5.00592 115.222 5.39536 115.222 5.84943V11H113.213V9.94105H113.153C113.031 10.1797 112.867 10.3902 112.661 10.5724C112.456 10.7514 112.209 10.8923 111.92 10.995C111.632 11.0945 111.299 11.1442 110.921 11.1442ZM111.528 9.68253C111.839 9.68253 112.114 9.62121 112.353 9.49858C112.592 9.37263 112.779 9.2036 112.915 8.99148C113.051 8.77936 113.119 8.53906 113.119 8.2706V7.46023C113.052 7.50331 112.961 7.54309 112.845 7.57955C112.732 7.61269 112.605 7.64418 112.462 7.67401C112.32 7.70052 112.177 7.72538 112.035 7.74858C111.892 7.76847 111.763 7.78669 111.647 7.80327C111.398 7.83973 111.181 7.89773 110.996 7.97727C110.81 8.05682 110.666 8.16454 110.563 8.30043C110.46 8.433 110.409 8.59872 110.409 8.79759C110.409 9.08594 110.513 9.30634 110.722 9.45881C110.934 9.60795 111.203 9.68253 111.528 9.68253Z" fill="white"/>
</svg>
