<svg width="134" height="12" viewBox="0 0 134 12" fill="none" xmlns="http://www.w3.org/2000/svg">
<path d="M2.72443 0.818182L5.18537 8.55398H5.27983L7.74574 0.818182H10.1321L6.62216 11H3.84801L0.333097 0.818182H2.72443ZM11.3178 11V3.36364H13.4357V11H11.3178ZM12.3817 2.37926C12.0669 2.37926 11.7968 2.27486 11.5714 2.06605C11.3493 1.85393 11.2383 1.60038 11.2383 1.3054C11.2383 1.01373 11.3493 0.763494 11.5714 0.554688C11.7968 0.342566 12.0669 0.236505 12.3817 0.236505C12.6966 0.236505 12.9651 0.342566 13.1871 0.554688C13.4125 0.763494 13.5252 1.01373 13.5252 1.3054C13.5252 1.60038 13.4125 1.85393 13.1871 2.06605C12.9651 2.27486 12.6966 2.37926 12.3817 2.37926ZM17.2502 6.58523V11H15.1323V3.36364H17.1507V4.71094H17.2402C17.4093 4.26681 17.6926 3.91548 18.0904 3.65696C18.4881 3.39512 18.9703 3.2642 19.5371 3.2642C20.0674 3.2642 20.5298 3.38021 20.9242 3.61222C21.3186 3.84422 21.6252 4.17566 21.8439 4.60653C22.0627 5.03409 22.1721 5.54451 22.1721 6.13778V11H20.0542V6.51562C20.0575 6.0483 19.9382 5.68371 19.6962 5.42188C19.4542 5.15672 19.1212 5.02415 18.6969 5.02415C18.4119 5.02415 18.16 5.08546 17.9412 5.2081C17.7258 5.33073 17.5568 5.50971 17.4341 5.74503C17.3148 5.97704 17.2535 6.2571 17.2502 6.58523ZM27.2915 11.1491C26.5094 11.1491 25.8365 10.9834 25.2731 10.652C24.7129 10.3172 24.2821 9.85322 23.9805 9.25994C23.6822 8.66667 23.533 7.9839 23.533 7.21165C23.533 6.42945 23.6838 5.74337 23.9854 5.15341C24.2904 4.56013 24.7229 4.09777 25.283 3.76633C25.8432 3.43158 26.5094 3.2642 27.2816 3.2642C27.9478 3.2642 28.5311 3.38518 29.0316 3.62713C29.5321 3.86908 29.9281 4.20881 30.2198 4.64631C30.5115 5.08381 30.6722 5.59754 30.7021 6.1875H28.7035C28.6471 5.80634 28.498 5.49976 28.256 5.26776C28.0174 5.03243 27.7042 4.91477 27.3164 4.91477C26.9883 4.91477 26.7016 5.00426 26.4563 5.18324C26.2144 5.3589 26.0254 5.61577 25.8896 5.95384C25.7537 6.2919 25.6857 6.70123 25.6857 7.18182C25.6857 7.66903 25.752 8.08333 25.8846 8.42472C26.0205 8.7661 26.2111 9.02628 26.4563 9.20526C26.7016 9.38423 26.9883 9.47372 27.3164 9.47372C27.5584 9.47372 27.7755 9.42401 27.9677 9.32457C28.1632 9.22514 28.324 9.08097 28.4499 8.89205C28.5792 8.69981 28.6637 8.46946 28.7035 8.20099H30.7021C30.6689 8.78433 30.5098 9.29806 30.2248 9.74219C29.9431 10.183 29.5536 10.5277 29.0565 10.7763C28.5593 11.0249 27.971 11.1491 27.2915 11.1491ZM35.5382 11.1491C34.7527 11.1491 34.0765 10.9901 33.5098 10.6719C32.9463 10.3504 32.5121 9.89631 32.2072 9.30966C31.9023 8.7197 31.7498 8.02202 31.7498 7.21662C31.7498 6.43111 31.9023 5.74171 32.2072 5.14844C32.5121 4.55516 32.9413 4.0928 33.4949 3.76136C34.0517 3.42992 34.7046 3.2642 35.4537 3.2642C35.9574 3.2642 36.4264 3.34541 36.8606 3.50781C37.2981 3.6669 37.6793 3.9072 38.0041 4.22869C38.3322 4.55019 38.5874 4.95455 38.7697 5.44176C38.952 5.92566 39.0431 6.49242 39.0431 7.14205V7.72372H32.595V6.41122H37.0495C37.0495 6.1063 36.9833 5.83617 36.8507 5.60085C36.7181 5.36553 36.5342 5.18158 36.2988 5.04901C36.0668 4.91312 35.7967 4.84517 35.4885 4.84517C35.167 4.84517 34.8819 4.91974 34.6333 5.06889C34.3881 5.21473 34.1958 5.41193 34.0566 5.66051C33.9174 5.90578 33.8462 6.17921 33.8429 6.48082V7.72869C33.8429 8.10653 33.9125 8.433 34.0517 8.7081C34.1942 8.98319 34.3947 9.19531 34.6532 9.34446C34.9118 9.49361 35.2183 9.56818 35.573 9.56818C35.8083 9.56818 36.0237 9.53504 36.2193 9.46875C36.4148 9.40246 36.5822 9.30303 36.7214 9.17045C36.8606 9.03788 36.9667 8.87547 37.0396 8.68324L38.9984 8.8125C38.899 9.28314 38.6951 9.69413 38.3869 10.0455C38.082 10.3935 37.6876 10.6652 37.2037 10.8608C36.7231 11.053 36.1679 11.1491 35.5382 11.1491ZM42.5431 6.58523V11H40.4252V3.36364H42.4437V4.71094H42.5332C42.7022 4.26681 42.9856 3.91548 43.3833 3.65696C43.7811 3.39512 44.2633 3.2642 44.8301 3.2642C45.3604 3.2642 45.8227 3.38021 46.2172 3.61222C46.6116 3.84422 46.9181 4.17566 47.1369 4.60653C47.3556 5.03409 47.465 5.54451 47.465 6.13778V11H45.3471V6.51562C45.3504 6.0483 45.2311 5.68371 44.9892 5.42188C44.7472 5.15672 44.4141 5.02415 43.9899 5.02415C43.7048 5.02415 43.4529 5.08546 43.2342 5.2081C43.0188 5.33073 42.8497 5.50971 42.7271 5.74503C42.6078 5.97704 42.5465 6.2571 42.5431 6.58523ZM49.0945 11V9.73722L52.8331 5.10866V5.05398H49.2237V3.36364H55.3835V4.74077L51.8736 9.25497V9.30966H55.5128V11H49.0945ZM60.3638 11.1491C59.5916 11.1491 58.9237 10.9851 58.3603 10.657C57.8001 10.3255 57.3676 9.86482 57.0627 9.27486C56.7578 8.68158 56.6053 7.99384 56.6053 7.21165C56.6053 6.42282 56.7578 5.73343 57.0627 5.14347C57.3676 4.55019 57.8001 4.08949 58.3603 3.76136C58.9237 3.42992 59.5916 3.2642 60.3638 3.2642C61.1361 3.2642 61.8023 3.42992 62.3624 3.76136C62.9258 4.08949 63.36 4.55019 63.665 5.14347C63.9699 5.73343 64.1223 6.42282 64.1223 7.21165C64.1223 7.99384 63.9699 8.68158 63.665 9.27486C63.36 9.86482 62.9258 10.3255 62.3624 10.657C61.8023 10.9851 61.1361 11.1491 60.3638 11.1491ZM60.3738 9.50852C60.7251 9.50852 61.0184 9.40909 61.2537 9.21023C61.4891 9.00805 61.6664 8.73295 61.7857 8.38494C61.9083 8.03693 61.9696 7.64086 61.9696 7.19673C61.9696 6.7526 61.9083 6.35653 61.7857 6.00852C61.6664 5.66051 61.4891 5.38542 61.2537 5.18324C61.0184 4.98106 60.7251 4.87997 60.3738 4.87997C60.0191 4.87997 59.7208 4.98106 59.4789 5.18324C59.2402 5.38542 59.0596 5.66051 58.937 6.00852C58.8176 6.35653 58.758 6.7526 58.758 7.19673C58.758 7.64086 58.8176 8.03693 58.937 8.38494C59.0596 8.73295 59.2402 9.00805 59.4789 9.21023C59.7208 9.40909 60.0191 9.50852 60.3738 9.50852ZM77.7631 4.38281H75.5856C75.5458 4.10109 75.4646 3.85085 75.342 3.6321C75.2193 3.41004 75.0619 3.22112 74.8697 3.06534C74.6774 2.90956 74.4554 2.79025 74.2035 2.70739C73.9549 2.62453 73.6848 2.5831 73.3931 2.5831C72.8661 2.5831 72.4071 2.71402 72.016 2.97585C71.6249 3.23437 71.3216 3.61222 71.1062 4.10938C70.8907 4.60322 70.783 5.20312 70.783 5.90909C70.783 6.63494 70.8907 7.24479 71.1062 7.73864C71.3249 8.23248 71.6299 8.60535 72.021 8.85724C72.4121 9.10914 72.8645 9.23509 73.3782 9.23509C73.6665 9.23509 73.9334 9.19697 74.1786 9.12074C74.4272 9.04451 74.6476 8.93348 74.8398 8.78764C75.0321 8.63849 75.1912 8.45786 75.3171 8.24574C75.4464 8.03362 75.5359 7.79167 75.5856 7.51989L77.7631 7.52983C77.7068 7.99716 77.5659 8.44792 77.3406 8.8821C77.1185 9.31297 76.8185 9.6991 76.4407 10.0405C76.0662 10.3786 75.6187 10.647 75.0984 10.8459C74.5813 11.0414 73.9963 11.1392 73.3434 11.1392C72.4353 11.1392 71.6232 10.9337 70.9073 10.5227C70.1947 10.1117 69.6313 9.51681 69.217 8.73793C68.806 7.95904 68.6005 7.0161 68.6005 5.90909C68.6005 4.79877 68.8093 3.85417 69.2269 3.07528C69.6445 2.2964 70.2113 1.70312 70.9272 1.29545C71.6431 0.884469 72.4485 0.678977 73.3434 0.678977C73.9334 0.678977 74.4802 0.761837 74.984 0.927557C75.4911 1.09328 75.9402 1.33523 76.3313 1.65341C76.7224 1.96828 77.0406 2.3544 77.2859 2.81179C77.5344 3.26918 77.6935 3.79285 77.7631 4.38281ZM81.3849 6.58523V11H79.267V0.818182H81.3253V4.71094H81.4148C81.5871 4.26018 81.8655 3.9072 82.25 3.65199C82.6345 3.39347 83.1167 3.2642 83.6967 3.2642C84.227 3.2642 84.6894 3.38021 85.0838 3.61222C85.4815 3.84091 85.7898 4.17069 86.0085 4.60156C86.2306 5.02912 86.34 5.54119 86.3366 6.13778V11H84.2188V6.51562C84.2221 6.04498 84.1027 5.67874 83.8608 5.4169C83.6222 5.15507 83.2874 5.02415 82.8565 5.02415C82.5682 5.02415 82.313 5.08546 82.0909 5.2081C81.8722 5.33073 81.6998 5.50971 81.5739 5.74503C81.4512 5.97704 81.3883 6.2571 81.3849 6.58523ZM88.0034 11V3.36364H90.1213V11H88.0034ZM89.0673 2.37926C88.7524 2.37926 88.4823 2.27486 88.2569 2.06605C88.0349 1.85393 87.9238 1.60038 87.9238 1.3054C87.9238 1.01373 88.0349 0.763494 88.2569 0.554688C88.4823 0.342566 88.7524 0.236505 89.0673 0.236505C89.3822 0.236505 89.6506 0.342566 89.8727 0.554688C90.0981 0.763494 90.2108 1.01373 90.2108 1.3054C90.2108 1.60038 90.0981 1.85393 89.8727 2.06605C89.6506 2.27486 89.3822 2.37926 89.0673 2.37926ZM93.9954 11.1442C93.5082 11.1442 93.074 11.0597 92.6928 10.8906C92.3117 10.7183 92.0101 10.4647 91.788 10.13C91.5692 9.7919 91.4599 9.37098 91.4599 8.86719C91.4599 8.44295 91.5378 8.08665 91.6935 7.7983C91.8493 7.50994 92.0614 7.27794 92.3299 7.10227C92.5984 6.92661 92.9033 6.79403 93.2447 6.70455C93.5894 6.61506 93.9506 6.55208 94.3285 6.51562C94.7726 6.46922 95.1306 6.42614 95.4023 6.38636C95.6741 6.34328 95.8713 6.2803 95.994 6.19744C96.1166 6.11458 96.1779 5.99195 96.1779 5.82955V5.79972C96.1779 5.48485 96.0785 5.24124 95.8796 5.06889C95.6841 4.89654 95.4057 4.81037 95.0444 4.81037C94.6632 4.81037 94.36 4.89489 94.1346 5.06392C93.9092 5.22964 93.7601 5.43845 93.6871 5.69034L91.7283 5.53125C91.8278 5.06723 92.0233 4.66619 92.315 4.32812C92.6067 3.98674 92.9828 3.7249 93.4435 3.54261C93.9076 3.35701 94.4445 3.2642 95.0543 3.2642C95.4786 3.2642 95.8846 3.31392 96.2724 3.41335C96.6635 3.51278 97.0098 3.6669 97.3114 3.87571C97.6164 4.08452 97.8567 4.35298 98.0323 4.68111C98.208 5.00592 98.2958 5.39536 98.2958 5.84943V11H96.2873V9.94105H96.2276C96.105 10.1797 95.9409 10.3902 95.7354 10.5724C95.5299 10.7514 95.283 10.8923 94.9947 10.995C94.7063 11.0945 94.3732 11.1442 93.9954 11.1442ZM94.6019 9.68253C94.9135 9.68253 95.1886 9.62121 95.4272 9.49858C95.6658 9.37263 95.8531 9.2036 95.989 8.99148C96.1249 8.77936 96.1928 8.53906 96.1928 8.2706V7.46023C96.1265 7.50331 96.0354 7.54309 95.9194 7.57955C95.8067 7.61269 95.6791 7.64418 95.5366 7.67401C95.3941 7.70052 95.2515 7.72538 95.109 7.74858C94.9665 7.76847 94.8372 7.78669 94.7212 7.80327C94.4727 7.83973 94.2556 7.89773 94.07 7.97727C93.8844 8.05682 93.7402 8.16454 93.6374 8.30043C93.5347 8.433 93.4833 8.59872 93.4833 8.79759C93.4833 9.08594 93.5877 9.30634 93.7965 9.45881C94.0086 9.60795 94.2771 9.68253 94.6019 9.68253ZM106.785 3.36364L104.115 11H101.729L99.0589 3.36364H101.296L102.882 8.82741H102.962L104.543 3.36364H106.785ZM111.103 11.1491C110.317 11.1491 109.641 10.9901 109.074 10.6719C108.511 10.3504 108.077 9.89631 107.772 9.30966C107.467 8.7197 107.314 8.02202 107.314 7.21662C107.314 6.43111 107.467 5.74171 107.772 5.14844C108.077 4.55516 108.506 4.0928 109.059 3.76136C109.616 3.42992 110.269 3.2642 111.018 3.2642C111.522 3.2642 111.991 3.34541 112.425 3.50781C112.863 3.6669 113.244 3.9072 113.569 4.22869C113.897 4.55019 114.152 4.95455 114.334 5.44176C114.516 5.92566 114.608 6.49242 114.608 7.14205V7.72372H108.159V6.41122H112.614C112.614 6.1063 112.548 5.83617 112.415 5.60085C112.283 5.36553 112.099 5.18158 111.863 5.04901C111.631 4.91312 111.361 4.84517 111.053 4.84517C110.731 4.84517 110.446 4.91974 110.198 5.06889C109.953 5.21473 109.76 5.41193 109.621 5.66051C109.482 5.90578 109.411 6.17921 109.407 6.48082V7.72869C109.407 8.10653 109.477 8.433 109.616 8.7081C109.759 8.98319 109.959 9.19531 110.218 9.34446C110.476 9.49361 110.783 9.56818 111.137 9.56818C111.373 9.56818 111.588 9.53504 111.784 9.46875C111.979 9.40246 112.147 9.30303 112.286 9.17045C112.425 9.03788 112.531 8.87547 112.604 8.68324L114.563 8.8125C114.463 9.28314 114.26 9.69413 113.951 10.0455C113.646 10.3935 113.252 10.6652 112.768 10.8608C112.288 11.053 111.732 11.1491 111.103 11.1491ZM120.051 3.36364V4.95455H115.453V3.36364H120.051ZM116.497 1.53409H118.615V8.65341C118.615 8.84896 118.645 9.00142 118.704 9.1108C118.764 9.21686 118.847 9.29143 118.953 9.33452C119.062 9.3776 119.188 9.39915 119.331 9.39915C119.43 9.39915 119.529 9.39086 119.629 9.37429C119.728 9.3544 119.805 9.33949 119.858 9.32955L120.191 10.9055C120.085 10.9387 119.935 10.9768 119.743 11.0199C119.551 11.0663 119.317 11.0945 119.042 11.1044C118.532 11.1243 118.084 11.0563 117.7 10.9006C117.319 10.7448 117.022 10.5028 116.81 10.1747C116.598 9.84659 116.493 9.43229 116.497 8.93182V1.53409ZM125.493 3.36364V4.95455H120.894V3.36364H125.493ZM121.938 1.53409H124.056V8.65341C124.056 8.84896 124.086 9.00142 124.146 9.1108C124.205 9.21686 124.288 9.29143 124.394 9.33452C124.504 9.3776 124.629 9.39915 124.772 9.39915C124.871 9.39915 124.971 9.39086 125.07 9.37429C125.17 9.3544 125.246 9.33949 125.299 9.32955L125.632 10.9055C125.526 10.9387 125.377 10.9768 125.185 11.0199C124.992 11.0663 124.759 11.0945 124.484 11.1044C123.973 11.1243 123.526 11.0563 123.141 10.9006C122.76 10.7448 122.464 10.5028 122.251 10.1747C122.039 9.84659 121.935 9.43229 121.938 8.93182V1.53409ZM129.05 11.1442C128.563 11.1442 128.129 11.0597 127.748 10.8906C127.366 10.7183 127.065 10.4647 126.843 10.13C126.624 9.7919 126.515 9.37098 126.515 8.86719C126.515 8.44295 126.592 8.08665 126.748 7.7983C126.904 7.50994 127.116 7.27794 127.385 7.10227C127.653 6.92661 127.958 6.79403 128.299 6.70455C128.644 6.61506 129.005 6.55208 129.383 6.51562C129.827 6.46922 130.185 6.42614 130.457 6.38636C130.729 6.34328 130.926 6.2803 131.049 6.19744C131.171 6.11458 131.233 5.99195 131.233 5.82955V5.79972C131.233 5.48485 131.133 5.24124 130.934 5.06889C130.739 4.89654 130.46 4.81037 130.099 4.81037C129.718 4.81037 129.415 4.89489 129.189 5.06392C128.964 5.22964 128.815 5.43845 128.742 5.69034L126.783 5.53125C126.882 5.06723 127.078 4.66619 127.37 4.32812C127.661 3.98674 128.038 3.7249 128.498 3.54261C128.962 3.35701 129.499 3.2642 130.109 3.2642C130.533 3.2642 130.939 3.31392 131.327 3.41335C131.718 3.51278 132.065 3.6669 132.366 3.87571C132.671 4.08452 132.911 4.35298 133.087 4.68111C133.263 5.00592 133.35 5.39536 133.35 5.84943V11H131.342V9.94105H131.282C131.16 10.1797 130.996 10.3902 130.79 10.5724C130.585 10.7514 130.338 10.8923 130.049 10.995C129.761 11.0945 129.428 11.1442 129.05 11.1442ZM129.657 9.68253C129.968 9.68253 130.243 9.62121 130.482 9.49858C130.721 9.37263 130.908 9.2036 131.044 8.99148C131.18 8.77936 131.248 8.53906 131.248 8.2706V7.46023C131.181 7.50331 131.09 7.54309 130.974 7.57955C130.861 7.61269 130.734 7.64418 130.591 7.67401C130.449 7.70052 130.306 7.72538 130.164 7.74858C130.021 7.76847 129.892 7.78669 129.776 7.80327C129.527 7.83973 129.31 7.89773 129.125 7.97727C128.939 8.05682 128.795 8.16454 128.692 8.30043C128.589 8.433 128.538 8.59872 128.538 8.79759C128.538 9.08594 128.642 9.30634 128.851 9.45881C129.063 9.60795 129.332 9.68253 129.657 9.68253Z" fill="white"/>
</svg>
