<?xml version="1.0" encoding="UTF-8" standalone="no"?>
<!-- Uploaded to: SVG Repo, www.svgrepo.com, Generator: SVG Repo Mixer Tools -->

<svg
   fill="#000000"
   height="737.33984"
   width="799.26562"
   version="1.1"
   id="Layer_1"
   viewBox="0 0 459.57973 423.97225"
   xml:space="preserve"
   sodipodi:docname="ico-plcholder.svg"
   inkscape:version="1.3.2 (1:1.3.2+202311252150+091e20ef0f)"
   xmlns:inkscape="http://www.inkscape.org/namespaces/inkscape"
   xmlns:sodipodi="http://sodipodi.sourceforge.net/DTD/sodipodi-0.dtd"
   xmlns="http://www.w3.org/2000/svg"
   xmlns:svg="http://www.w3.org/2000/svg"><defs
   id="defs2" /><sodipodi:namedview
   id="namedview2"
   pagecolor="#ffffff"
   bordercolor="#666666"
   borderopacity="1.0"
   inkscape:showpageshadow="2"
   inkscape:pageopacity="0.0"
   inkscape:pagecheckerboard="true"
   inkscape:deskcolor="#d1d1d1"
   inkscape:zoom="1.1175"
   inkscape:cx="399.55257"
   inkscape:cy="344.51902"
   inkscape:current-layer="Layer_1" />
<path
   id="path4"
   style="fill:#e7ecfb;fill-rule:evenodd;stroke:none;stroke-width:3.1393;stroke-linecap:round;stroke-linejoin:round;stroke-miterlimit:10.5;paint-order:fill markers stroke;fill-opacity:1"
   d="M 229.78987,0 A 229.78963,211.98605 0 0 0 0,211.98613 229.78963,211.98605 0 0 0 229.78987,423.97226 229.78963,211.98605 0 0 0 459.57974,211.98613 229.78963,211.98605 0 0 0 229.78987,0 Z m -73.92039,88.167424 c 31.80091,0 57.67432,25.872296 57.67432,57.673206 0,31.80091 -25.87341,57.67432 -57.67432,57.67432 -31.80091,0 -57.673204,-25.87341 -57.673204,-57.67432 0,-31.80091 25.872294,-57.673206 57.673204,-57.673206 z M 270.14449,200.74551 c 4.16306,0 8.03883,2.12581 10.27592,5.63659 l 91.30973,143.29804 c 2.39061,3.75204 2.54728,8.5076 0.40766,12.40747 -2.13961,3.89988 -6.23428,6.32503 -10.68246,6.32503 H 98.124401 c -4.448997,0 -8.543668,-2.42434 -10.682468,-6.32503 -2.139613,-3.90069 -1.982947,-8.65625 0.407667,-12.40747 l 62.62137,-98.27602 c 2.23709,-3.51078 6.11205,-5.63659 10.27592,-5.63659 4.16388,0 8.03884,2.12581 10.27593,5.63659 l 30.07869,47.20412 58.76706,-92.22614 c 2.23708,-3.51159 6.11204,-5.63659 10.27592,-5.63659 z" /><g
   id="g2"
   transform="matrix(0.81230618,0,0,0.81230618,42.958631,42.67709)">
	<g
   id="g1">
		
	</g>
</g>
</svg>
