<?xml version="1.0" encoding="UTF-8" standalone="no"?>
<svg
   id="Livello_2"
   viewBox="0 0 100 100"
   version="1.1"
   sodipodi:docname="social-icons-email-circle.svg"
   width="30"
   height="30"
   inkscape:version="1.3.2 (1:1.3.2+202311252150+091e20ef0f)"
   xmlns:inkscape="http://www.inkscape.org/namespaces/inkscape"
   xmlns:sodipodi="http://sodipodi.sourceforge.net/DTD/sodipodi-0.dtd"
   xmlns="http://www.w3.org/2000/svg"
   xmlns:svg="http://www.w3.org/2000/svg">
  <sodipodi:namedview
     id="namedview1"
     pagecolor="#ffffff"
     bordercolor="#666666"
     borderopacity="1.0"
     inkscape:showpageshadow="2"
     inkscape:pageopacity="0.0"
     inkscape:pagecheckerboard="0"
     inkscape:deskcolor="#d1d1d1"
     inkscape:zoom="10.242798"
     inkscape:cx="7.6639216"
     inkscape:cy="11.861993"
     inkscape:current-layer="Livello_2" />
  <defs
     id="defs1">
    <style
       id="style1">
      .cls-1 {
        fill: #fff;
      }
    </style>
  </defs>
  <g
     id="Livello_2-2"
     data-name="Livello_2"
     transform="matrix(1.1163829,0,0,1.1163829,10,10)"
     style="stroke-width:0.89575">
    <path
       class="cls-1"
       d="M 35.83,0 C 16.04,0 0,16.04 0,35.83 0,55.62 16.04,71.66 35.83,71.66 55.62,71.66 71.66,55.62 71.66,35.83 71.66,16.04 55.62,0 35.83,0 Z m 22.24,47.91 c 0,2.48 -2.01,4.48 -4.48,4.48 H 18.8 c -2.48,0 -4.48,-2.01 -4.48,-4.48 V 33.87 c 0,-0.5 0.52,-0.83 0.97,-0.61 5.3,2.61 18.84,9.27 19.77,9.66 1.16,0.48 2.02,0 2.02,0 L 57.09,32.77 c 0.45,-0.23 0.98,0.1 0.98,0.6 V 47.9 Z m 0,-23.58 c 0,0.76 -0.43,1.46 -1.11,1.8 L 36.85,36.27 c -0.34,0.17 -0.75,0.17 -1.09,0 L 15.41,25.88 c -0.68,-0.35 -1.1,-1.04 -1.1,-1.8 V 22.3 c 0,-0.42 0.34,-0.76 0.76,-0.76 h 42.25 c 0.42,0 0.76,0.34 0.76,0.76 v 2.03 z"
       id="path1"
       style="stroke-width:0.89575" />
  </g>
</svg>
