<?xml version="1.0" encoding="UTF-8" standalone="no"?>
<!-- Created with Inkscape (http://www.inkscape.org/) -->

<svg
   width="29.999954"
   height="30"
   viewBox="0 0 7.9374879 7.9375001"
   version="1.1"
   id="svg1"
   inkscape:version="1.3.2 (1:1.3.2+202311252150+091e20ef0f)"
   sodipodi:docname="social-icons-telegram-circle.svg"
   xmlns:inkscape="http://www.inkscape.org/namespaces/inkscape"
   xmlns:sodipodi="http://sodipodi.sourceforge.net/DTD/sodipodi-0.dtd"
   xmlns="http://www.w3.org/2000/svg"
   xmlns:svg="http://www.w3.org/2000/svg">
  <sodipodi:namedview
     id="namedview1"
     pagecolor="#ffffff"
     bordercolor="#666666"
     borderopacity="1.0"
     inkscape:showpageshadow="2"
     inkscape:pageopacity="0.0"
     inkscape:pagecheckerboard="0"
     inkscape:deskcolor="#d1d1d1"
     inkscape:document-units="mm"
     inkscape:zoom="13.088189"
     inkscape:cx="16.045001"
     inkscape:cy="21.813561"
     inkscape:current-layer="layer1" />
  <defs
     id="defs1" />
  <g
     inkscape:label="Livello 1"
     inkscape:groupmode="layer"
     id="layer1"
     transform="translate(-101.6,-144.72708)">
    <path
       d="m 105.56874,145.38853 c 1.82653,0 3.30729,1.48077 3.30729,3.3073 0,1.82652 -1.48076,3.30729 -3.30729,3.30729 -1.82653,0 -3.30729,-1.48077 -3.30729,-3.30729 0,-1.82653 1.48076,-3.3073 3.30729,-3.3073 z m 1.14086,4.65548 c 0.0607,-0.18658 0.34591,-2.04677 0.38095,-2.41343 0.0107,-0.11095 -0.0245,-0.18476 -0.0931,-0.21783 -0.0831,-0.0398 -0.20611,-0.02 -0.34906,0.0316 -0.1959,0.0707 -2.69966,1.13363 -2.84428,1.19528 -0.1371,0.0583 -0.26684,0.12176 -0.26684,0.21392 0,0.0648 0.0385,0.10117 0.14432,0.1389 0.11004,0.0392 0.38741,0.12327 0.55142,0.16855 0.15785,0.0436 0.33719,0.006 0.43791,-0.0568 0.10659,-0.0663 1.3381,-0.89011 1.42634,-0.96242 0.0882,-0.0721 0.15875,0.0203 0.0866,0.0926 -0.0722,0.0722 -0.91731,0.89252 -1.02886,1.00616 -0.13547,0.13785 -0.0394,0.28083 0.0515,0.33811 0.10358,0.0654 0.84923,0.56539 0.96152,0.64566 0.11232,0.0803 0.22612,0.11666 0.33044,0.11666 0.10433,-1.6e-4 0.1592,-0.13756 0.21106,-0.29689 z"
       fill="#ffffff"
       id="path1"
       style="stroke-width:0.264583" />
  </g>
</svg>
